<svg width="22" height="18" viewBox="0 0 22 18" fill="none" xmlns="http://www.w3.org/2000/svg">
<rect width="22" height="18" fill="white"/>
<path d="M20.8128 15.7188L2.12531 1.10969C2.07405 1.06865 2.01521 1.03811 1.95215 1.01981C1.88909 1.00151 1.82305 0.995811 1.75778 1.00304C1.69252 1.01026 1.62932 1.03027 1.57179 1.06192C1.51426 1.09357 1.46353 1.13624 1.42249 1.1875L1.10999 1.57781C1.06886 1.62909 1.03824 1.68797 1.01988 1.75109C1.00153 1.81421 0.995804 1.88033 1.00303 1.94567C1.01026 2.011 1.0303 2.07427 1.062 2.13186C1.09371 2.18944 1.13646 2.24021 1.18781 2.28125L19.8753 16.8903C19.9266 16.9314 19.9854 16.9619 20.0485 16.9802C20.1115 16.9985 20.1776 17.0042 20.2428 16.997C20.3081 16.9897 20.3713 16.9697 20.4288 16.9381C20.4863 16.9064 20.5371 16.8638 20.5781 16.8125L20.8906 16.4222C20.9318 16.3709 20.9624 16.312 20.9807 16.2489C20.9991 16.1858 21.0048 16.1197 20.9976 16.0543C20.9904 15.989 20.9703 15.9257 20.9386 15.8681C20.9069 15.8106 20.8642 15.7598 20.8128 15.7188V15.7188ZM10.275 5.57719L14.4872 8.87031C14.4178 6.99719 12.8903 5.5 11.0003 5.5C10.7565 5.50046 10.5134 5.52633 10.275 5.57719ZM11.7256 12.4231L7.51343 9.13C7.58312 11.0028 9.11062 12.5 11.0003 12.5C11.2441 12.4995 11.4871 12.4737 11.7256 12.4231V12.4231ZM11.0003 4.5C14.0831 4.5 16.9094 6.21875 18.4356 9C18.0615 9.68449 17.5992 10.317 17.0606 10.8813L18.24 11.8031C18.8966 11.1007 19.4529 10.3108 19.8931 9.45594C19.9646 9.31453 20.0019 9.1583 20.0019 8.99984C20.0019 8.84139 19.9646 8.68516 19.8931 8.54375C18.1969 5.23719 14.8419 3 11.0003 3C9.85343 3 8.75937 3.21875 7.73062 3.58781L9.18093 4.72188C9.77281 4.5875 10.3791 4.5 11.0003 4.5ZM11.0003 13.5C7.91749 13.5 5.09156 11.7812 3.56499 9C3.93961 8.31552 4.40242 7.68314 4.94156 7.11906L3.76218 6.19719C3.10566 6.89952 2.54945 7.6893 2.10937 8.54406C2.03788 8.68547 2.00064 8.8417 2.00064 9.00016C2.00064 9.15861 2.03788 9.31484 2.10937 9.45625C3.80406 12.7628 7.15906 15 11.0003 15C12.1472 15 13.2412 14.7797 14.27 14.4122L12.8197 13.2784C12.2278 13.4125 11.6219 13.5 11.0003 13.5Z" fill="#0053B7"/>
</svg>
