<svg width="22" height="18" viewBox="0 0 22 18" fill="none" xmlns="http://www.w3.org/2000/svg">
<rect width="22" height="18" fill="white"/>
<path d="M11 5.5C10.6688 5.50518 10.34 5.5578 10.0237 5.65625C10.17 5.91354 10.2479 6.20403 10.25 6.5C10.25 6.72981 10.2047 6.95738 10.1168 7.1697C10.0288 7.38202 9.89992 7.57493 9.73742 7.73744C9.57492 7.89994 9.382 8.02884 9.16968 8.11679C8.95736 8.20474 8.72979 8.25 8.49998 8.25C8.20402 8.24795 7.91352 8.17005 7.65623 8.02375C7.45324 8.72775 7.4769 9.47777 7.72386 10.1676C7.97081 10.8574 8.42855 11.452 9.03222 11.8672C9.6359 12.2824 10.3549 12.4972 11.0874 12.481C11.8199 12.4649 12.5288 12.2187 13.1136 11.7773C13.6984 11.3359 14.1295 10.7217 14.3458 10.0217C14.5621 9.32167 14.5527 8.57133 14.3189 7.87696C14.0851 7.18258 13.6388 6.57937 13.0431 6.15277C12.4475 5.72616 11.7327 5.49779 11 5.5V5.5ZM19.8912 8.54375C18.1965 5.23719 14.8415 3 11 3C7.15842 3 3.80248 5.23875 2.10873 8.54406C2.03725 8.68547 2 8.8417 2 9.00016C2 9.15861 2.03725 9.31484 2.10873 9.45625C3.80342 12.7628 7.15842 15 11 15C14.8415 15 18.1975 12.7612 19.8912 9.45594C19.9627 9.31453 20 9.1583 20 8.99984C20 8.84139 19.9627 8.68516 19.8912 8.54375V8.54375ZM11 13.5C7.91717 13.5 5.09092 11.7812 3.56467 9C5.09092 6.21875 7.91686 4.5 11 4.5C14.0831 4.5 16.909 6.21875 18.4353 9C16.9094 11.7812 14.0831 13.5 11 13.5Z" fill="#0053B7"/>
</svg>
