<svg width="269" height="175" viewBox="0 0 269 175" fill="none" xmlns="http://www.w3.org/2000/svg">
<g clip-path="url(#clip0)">
<path fill-rule="evenodd" clip-rule="evenodd" d="M146.915 60.5918C146.915 60.5918 145.664 60.5918 145.607 60.5918C144.127 60.5918 142.648 60.0212 141.624 58.9372C141.51 58.8231 141.396 58.6519 141.226 58.5378C140.998 58.5378 140.714 58.5378 140.486 58.5378C136.048 58.5378 132.009 56.9973 128.367 54.0305C126.66 52.6612 125.978 50.4361 126.433 48.3821C123.702 45.0159 121.824 39.9951 122.735 32.6351C122.962 31.0376 123.759 29.6683 125.011 28.7554C124.328 24.077 125.238 19.4556 127.741 14.8341C128.709 13.0084 130.643 11.8673 132.691 11.8103H132.805C133.26 11.8103 133.659 11.8103 134.057 11.8673C136.333 7.24591 139.803 3.30916 143.843 0.855816L143.957 0.798762C144.867 0.228218 145.891 0 146.915 0C147.939 0 148.964 0.285272 149.874 0.855816L149.988 0.91287C154.027 3.42326 157.498 7.30296 159.774 11.9814C160.172 11.9244 160.627 11.9244 161.025 11.9244H161.139C163.244 11.9244 165.122 13.0655 166.089 14.9483C168.592 19.5697 169.503 24.1911 168.82 28.8695C170.072 29.7824 170.868 31.1517 171.096 32.7492C172.006 40.1092 170.186 45.13 167.398 48.4962C167.853 50.5502 167.17 52.7183 165.463 54.1446C161.822 57.1115 157.782 58.6519 153.344 58.6519C153.117 58.6519 152.832 58.6519 152.605 58.6519C152.491 58.766 152.377 58.9372 152.263 59.0513C151.182 60.1353 149.76 60.7059 148.281 60.7059C148.167 60.5918 146.915 60.5918 146.915 60.5918Z" fill="white"/>
<path d="M62.141 128.144C58.0445 128.144 54.7446 127.46 52.0705 126.033C48.5999 124.207 45.9827 121.754 44.3896 118.787C42.9103 116.049 42.0569 113.025 42 109.944C41.9431 107.091 42.3983 104.124 43.3655 101.157C44.2189 98.533 45.2999 95.9655 46.4947 93.6834C47.3482 91.9717 48.5999 90.0319 50.193 87.8638C51.7291 85.8099 53.6636 83.5277 55.8825 81.1884C58.1014 78.7922 60.7755 76.3388 63.8479 73.8855C65.8961 72.2309 68.1719 70.5763 70.5615 69.0359C70.2202 67.7807 69.8219 66.5255 69.4236 65.3273C68.5702 62.931 67.5461 60.6489 66.4082 58.5378C66.3513 58.4808 66.3513 58.4237 66.2944 58.3667C64.7582 55.3428 63.8479 51.9766 63.5065 48.3251C63.222 44.5595 63.7341 40.851 65.1565 37.3136C66.522 33.8333 68.7978 30.6953 71.8132 27.9567C74.9425 25.161 79.0959 23.1641 84.1027 22.1371H84.1596C86.2078 21.7378 88.1422 21.5666 89.906 21.5666C91.4422 21.5666 92.9215 21.7378 94.2301 22.023C96.9042 22.6506 99.2369 23.6776 101.114 24.9899C101.171 24.9328 101.228 24.8758 101.285 24.7617C101.911 23.9629 102.537 23.05 103.163 22.0801C103.675 20.8249 104.414 19.7409 105.325 18.828C107.487 16.6599 109.763 16.2035 111.242 16.2035C112.437 16.2035 113.631 16.4888 114.712 17.0593C115.338 17.3446 115.964 17.801 117.045 18.5998C118.411 19.6268 119.605 21.0531 120.516 22.8218C121.483 24.6475 121.995 26.7586 122.052 29.326C122.166 32.0646 121.369 34.9173 119.719 38.1124C119.719 38.1694 119.662 38.1694 119.662 38.2265C118.126 41.0222 116.249 43.6467 113.973 46.157C111.697 48.6104 109.307 50.7214 106.804 52.433C104.187 54.1447 101.626 55.4569 99.1231 56.1986C97.7007 56.6551 96.3352 56.8262 95.0835 56.8262C94.6283 56.8262 94.1732 56.7692 93.718 56.7121C93.9456 57.2827 94.1732 57.8532 94.4007 58.4237C96.9041 57.7961 99.4644 57.2827 102.139 56.8262C106.69 56.0845 111.697 55.6281 116.931 55.514C116.988 55.514 117.443 55.514 117.443 55.514C118.183 55.514 118.98 55.6281 119.947 55.9133C123.361 56.8833 125.238 60.2495 124.385 63.6727C124.328 63.958 124.214 64.1862 124.157 64.4145C123.702 65.6126 122.905 66.8107 121.767 68.18C120.402 69.8346 118.468 71.0328 116.021 71.8315C115.907 71.8886 115.793 71.8886 115.68 71.9456C113.859 72.4591 111.071 73.2008 107.373 74.2278C104.87 74.9125 102.139 75.8253 99.1231 76.9094C99.3507 78.8492 99.4644 80.8461 99.5213 82.843C99.5782 86.6657 99.18 90.7736 98.2127 94.9956C96.449 102.926 93.6042 109.316 89.6215 114.166C85.7526 118.901 81.4286 122.382 76.9338 124.607C72.4391 126.775 67.8875 127.973 63.5065 128.144C62.9944 128.087 62.5962 128.144 62.141 128.144Z" fill="white"/>
<path d="M136.788 107.433C136.333 107.433 135.878 107.376 135.422 107.319C132.521 107.262 129.904 106.692 127.628 105.551C125.466 104.581 123.531 103.04 121.824 100.986C121.369 101.329 120.857 101.671 120.402 102.013C117.443 104.067 114.143 105.094 110.616 105.094C109.364 105.094 108.056 104.98 106.747 104.695C102.878 103.896 99.9765 102.127 98.0989 99.3317C96.5059 96.9925 95.5955 94.2539 95.4249 91.173C95.2542 88.5485 95.5955 85.6957 96.449 82.7289C97.1886 80.1044 98.0989 77.4799 99.2369 74.9125C100.318 72.4591 101.57 70.1199 102.878 67.9518C104.187 65.7838 105.325 64.0721 106.463 62.7028C108.397 60.1354 110.787 57.5679 113.631 55.1716C116.874 52.433 120.402 51.0637 124.157 51.0637C124.783 51.0637 125.466 51.1208 126.092 51.1778C126.319 51.2349 126.547 51.2349 126.774 51.2919C127.229 51.406 127.798 51.5202 128.538 51.6913C130.131 52.0336 131.61 52.8324 132.976 53.9164C135.422 55.7422 136.959 58.2526 137.414 61.1623C137.414 61.2194 137.414 61.2765 137.414 61.3335C137.471 61.3335 137.471 61.3906 137.528 61.3906C137.698 61.4476 137.869 61.5617 138.04 61.6188C138.153 61.6758 138.267 61.7329 138.324 61.7899C142.193 63.8439 144.014 66.6966 144.81 68.8647C145.834 70.9757 145.948 73.429 145.152 75.8253C145.095 76.0535 144.981 76.2818 144.867 76.51C143.729 78.9633 142.762 81.5308 142.022 84.1553C142.022 84.2123 142.022 84.2694 141.965 84.3264C141.226 86.8368 140.827 89.119 140.884 91.173C140.941 92.7134 141.453 94.1968 142.421 95.6232C142.591 95.8514 142.705 96.0796 142.876 96.3649L143.217 97.1066C144.241 99.1606 144.241 101.443 143.274 103.383C142.25 105.893 139.803 107.433 136.788 107.433ZM118.581 75.3689C118.468 75.5971 118.297 75.8824 118.183 76.1106C117.33 77.7652 116.818 79.3056 116.533 80.675C116.533 80.732 116.533 80.732 116.533 80.7891C116.704 80.675 116.874 80.5608 117.102 80.4467C118.354 79.648 119.492 78.8492 120.63 77.9363C120.686 77.7652 120.743 77.537 120.8 77.3658C119.719 76.7953 119.036 76.0536 118.581 75.3689Z" fill="white"/>
<path d="M175.875 107.433C175.42 107.433 174.965 107.376 174.51 107.319C171.608 107.262 168.991 106.692 166.715 105.551C164.553 104.581 162.618 103.04 160.912 100.986C160.456 101.329 159.944 101.671 159.489 102.013C156.531 104.067 153.231 105.094 149.703 105.094C148.451 105.094 147.143 104.98 145.834 104.695C141.965 103.896 139.064 102.127 137.186 99.3317C135.593 96.9925 134.683 94.2539 134.512 91.173C134.341 88.5485 134.683 85.6957 135.479 82.7289C136.219 80.1044 137.129 77.4799 138.267 74.9125C139.348 72.4591 140.6 70.1199 141.908 67.9518C143.217 65.7838 144.355 64.0721 145.493 62.7028C147.427 60.1354 149.817 57.5679 152.662 55.1716C155.905 52.433 159.432 51.0637 163.244 51.0637C163.87 51.0637 164.553 51.1208 165.179 51.1778C165.406 51.2349 165.634 51.2349 165.861 51.2919C166.317 51.406 166.886 51.5202 167.625 51.6913C169.218 52.0336 170.698 52.8324 172.063 53.9164C174.51 55.7422 176.046 58.2526 176.501 61.1623C176.501 61.2194 176.501 61.2765 176.501 61.3335L176.615 61.3906C176.785 61.4476 176.956 61.5617 177.127 61.6188C177.241 61.6758 177.354 61.7329 177.411 61.7899C181.28 63.8439 183.101 66.6966 183.897 68.8647C184.921 70.9757 185.035 73.429 184.239 75.8253C184.182 76.0535 184.068 76.2818 183.954 76.51C182.816 78.9633 181.849 81.5308 181.109 84.1553C181.109 84.2123 181.109 84.2694 181.053 84.3264C180.256 86.8368 179.915 89.119 179.972 91.173C180.028 92.7134 180.541 94.1968 181.508 95.6232C181.678 95.8514 181.792 96.0796 181.963 96.3649L182.304 97.1066C183.328 99.1606 183.328 101.443 182.361 103.383C181.337 105.893 178.891 107.433 175.875 107.433ZM157.612 75.3689C157.498 75.5971 157.327 75.8824 157.213 76.1106C156.36 77.7652 155.848 79.3056 155.563 80.675C155.563 80.732 155.563 80.732 155.563 80.7891C155.734 80.675 155.905 80.5608 156.132 80.4467C157.384 79.648 158.522 78.8492 159.66 77.9363C159.717 77.7652 159.774 77.537 159.831 77.3658C158.806 76.7953 158.067 76.0536 157.612 75.3689Z" fill="white"/>
<path d="M190.611 106.007C188.165 106.007 185.832 105.836 183.67 105.437C183.442 105.437 183.271 105.379 183.044 105.322C180.711 104.809 178.891 103.839 177.639 102.413C177.354 102.07 177.127 101.842 177.013 101.728C176.729 101.443 176.501 101.214 176.33 100.872C174.623 98.3047 173.77 95.5091 173.77 92.5993C173.713 91.1159 173.827 89.6895 174.111 88.3202C174.396 87.1221 174.737 85.9239 175.249 84.7828C175.875 83.1853 177.013 81.5307 178.72 79.4768C180.085 77.8222 181.622 76.1676 183.215 74.456C184.808 72.7443 186.401 71.1468 187.937 69.6064C188.165 69.3781 188.392 69.1499 188.62 68.9788C185.946 68.2371 183.727 66.5825 182.134 64.1291C180.939 62.3034 180.37 60.3635 180.37 58.3096C180.37 56.5979 180.825 54.8293 181.735 53.0606C182.703 51.1207 184.409 49.4091 186.856 47.8116C187.14 47.6404 187.482 47.4692 187.766 47.3551C188.563 47.0699 189.359 46.8416 190.156 46.7846C190.327 46.7846 190.611 46.7275 190.782 46.7275C193.228 46.7275 195.39 48.211 196.471 50.4361C196.926 50.379 197.666 50.322 199.145 50.2649C200.454 50.2079 201.819 50.1508 203.356 50.1508C204.778 50.1508 206.143 50.0937 207.509 50.0367C209.045 49.9796 210.126 49.9226 210.866 49.9226H210.98C211.093 49.9226 211.207 49.9226 211.321 49.9226C211.605 49.9226 211.89 49.8655 212.174 49.8655C212.459 49.8655 212.8 49.8655 213.142 49.9226C213.483 49.9226 213.767 49.8655 214.166 49.8655C214.45 49.8655 214.678 49.8655 215.019 49.8655C215.873 49.9226 216.783 50.0367 217.636 50.1508C219.286 50.4361 220.766 51.0066 222.074 51.7483C224.236 53.0606 225.602 55.2857 225.943 57.9102C226 58.1384 226 58.3666 226 58.6519V59.2795C226 60.1924 225.772 61.1623 225.374 62.0752C224.691 63.8439 223.44 65.3843 221.733 66.6395C221.562 66.7536 221.448 66.8677 221.278 66.9248C220.14 67.6095 219.002 67.9518 217.807 67.9518C217.238 67.9518 216.612 67.8947 216.1 67.7236C215.474 68.0659 214.223 68.8646 212.004 70.6333C210.923 71.6603 209.842 72.6302 208.818 73.6572C207.907 74.5701 206.997 75.54 206.087 76.4529C206.143 76.4529 206.257 76.4529 206.314 76.4529C207.452 76.4529 208.533 76.7382 209.557 77.3087C210.411 77.7651 211.15 78.3927 211.776 79.1344C212.402 79.8191 212.914 80.6179 213.312 81.5878C213.369 81.7019 213.426 81.816 213.426 81.9301C214.45 84.7828 214.905 87.2932 214.735 89.6895C214.621 92.1428 213.938 94.425 212.8 96.3078C211.719 98.1336 210.24 99.7311 208.419 100.986C206.94 102.013 205.347 102.869 203.697 103.554C203.64 103.554 203.64 103.611 203.583 103.611C199.999 104.98 195.675 105.779 190.725 106.007C190.725 106.007 190.668 106.007 190.611 106.007Z" fill="white"/>
<path d="M91.556 128.772C89.8491 128.772 88.256 128.03 87.175 126.718C86.094 125.406 85.6388 123.751 85.9233 122.096L86.1509 120.841C86.3216 119.757 86.8336 118.73 87.5733 117.931L88.0285 115.478C87.6302 114.508 87.5164 113.424 87.6871 112.34L87.9147 111.028C88.3698 108.289 90.7594 106.292 93.4904 106.292H97.6438C103.732 106.292 107.999 110.4 107.999 116.22C107.999 123.58 103.106 128.715 96.0507 128.715H91.556V128.772Z" fill="white"/>
<path d="M105.04 129C101.968 129 100.261 127.46 99.5213 126.547C98.611 125.406 97.5869 123.409 98.1558 120.499L98.5541 118.217C98.1558 117.247 98.042 116.106 98.2127 115.079L98.4403 113.824C98.611 113.025 98.8955 112.283 99.3506 111.656C99.8627 108.289 102.821 105.665 106.406 105.665C110.161 105.665 113.119 108.575 113.119 112.283C113.119 113.253 112.949 114.109 112.607 114.965C112.607 115.25 112.55 115.535 112.55 115.878L111.868 119.643C112.323 120.67 112.493 121.868 112.266 123.066L112.038 124.322C111.64 126.376 110.218 128.03 108.226 128.715C106.861 128.943 105.438 129 105.04 129Z" fill="white"/>
<path d="M110.445 129C108.909 129 106.633 128.658 104.926 127.745C102.764 126.604 101.57 124.15 101.968 121.697L102.309 119.586C102.423 119.016 102.594 118.502 102.821 117.989C102.764 117.703 102.764 117.418 102.764 117.133C102.764 113.082 105.666 108.746 112.038 108.746C113.233 108.746 115.566 108.917 117.557 110.115C119.605 111.313 120.686 113.709 120.231 116.049L119.89 117.989C119.833 118.331 119.719 118.73 119.605 119.073C119.662 119.472 119.719 119.928 119.719 120.328C119.776 125.463 115.964 129 110.445 129Z" fill="white"/>
<path d="M118.069 129C114.769 129 112.835 127.517 111.868 126.318C110.388 124.55 109.933 122.268 110.445 119.529L110.616 118.73C109.99 117.418 109.819 115.878 110.275 114.451L110.673 113.139C111.128 111.655 112.152 110.514 113.461 109.83C114.485 108.175 116.306 107.148 118.297 107.148H119.378C121.085 107.148 122.678 107.89 123.759 109.202C123.929 109.43 124.1 109.659 124.271 109.944C124.783 110.286 125.295 110.743 125.693 111.256C126.774 112.625 127.173 114.451 126.717 116.163L126.376 117.589C126.205 118.331 125.864 118.958 125.466 119.529C125.579 119.814 125.636 120.1 125.693 120.442L125.921 121.754C126.319 124.093 125.238 126.433 123.247 127.631C121.654 128.544 119.89 129 118.069 129Z" fill="white"/>
<path d="M121.767 128.772C120.061 128.772 118.468 128.03 117.387 126.718C116.305 125.406 115.85 123.694 116.135 122.039L116.818 118.16C116.362 117.133 116.249 115.992 116.476 114.908L116.704 113.652C117.216 110.971 119.549 108.974 122.28 108.974H124.954C125.067 108.974 125.181 108.974 125.352 108.974C125.978 108.803 126.717 108.746 127.4 108.746C129.05 108.746 130.529 109.145 131.781 109.887C133.829 111.085 134.853 113.424 134.455 115.763L134 118.502C133.602 120.841 131.781 122.667 129.505 123.123L129.335 124.036C128.879 126.775 126.49 128.772 123.759 128.772H121.767Z" fill="white"/>
<path d="M130.985 129C127.912 129 126.205 127.46 125.466 126.547C124.555 125.406 123.531 123.409 124.1 120.499L124.498 118.217C124.1 117.247 123.986 116.106 124.157 115.079L124.385 113.824C124.555 113.025 124.84 112.283 125.295 111.656C125.807 108.289 128.766 105.665 132.35 105.665C136.105 105.665 139.064 108.575 139.064 112.283C139.064 113.253 138.893 114.109 138.552 114.965C138.552 115.25 138.495 115.535 138.495 115.878L137.812 119.643C138.267 120.67 138.438 121.868 138.21 123.066L137.983 124.322C137.584 126.376 136.162 128.03 134.171 128.715C132.805 128.943 131.383 129 130.985 129Z" fill="white"/>
<path d="M137.186 129C135.479 129 132.862 128.601 130.985 127.402C129.05 126.147 128.026 123.865 128.424 121.583L129.619 114.736C129.164 113.709 129.05 112.568 129.278 111.427L129.505 110.172C130.017 107.49 132.35 105.494 135.081 105.494H137.926C139.633 105.494 141.226 106.235 142.307 107.547C142.876 108.175 143.217 108.974 143.445 109.773C145.834 111.085 147.655 113.652 147.655 117.646C147.655 124.493 143.445 129 137.186 129Z" fill="white"/>
<path d="M145.72 129C143.217 129 140.998 128.03 139.576 126.261C138.04 124.436 137.471 121.982 137.983 119.358L138.21 118.103C137.812 117.133 137.698 116.049 137.869 115.022L138.096 113.767C138.552 111.028 140.941 109.031 143.729 109.031H146.574C147.029 109.031 147.541 109.088 147.939 109.202C148.395 109.088 148.85 109.031 149.362 109.031H151.296C153.003 109.031 154.596 109.773 155.677 111.085C156.758 112.397 157.213 114.109 156.929 115.763L156.246 119.586C156.701 120.613 156.815 121.754 156.644 122.838L156.417 124.093C156.075 126.09 154.71 127.802 152.776 128.487C151.694 128.886 150.386 129.057 149.589 129.057C148.907 129.057 148.338 129 147.769 128.829C147.086 128.943 146.403 129 145.72 129Z" fill="white"/>
<path d="M154.141 129C151.069 129 149.362 127.46 148.622 126.547C147.712 125.406 146.688 123.409 147.257 120.499L147.655 118.217C147.257 117.247 147.143 116.106 147.314 115.079L147.541 113.824C147.712 113.025 147.996 112.283 148.451 111.656C148.964 108.289 151.922 105.665 155.506 105.665C159.262 105.665 162.22 108.575 162.22 112.283C162.22 113.253 162.049 114.109 161.708 114.965C161.708 115.25 161.651 115.535 161.651 115.878L160.968 119.643C161.424 120.67 161.594 121.868 161.367 123.066L161.139 124.322C160.741 126.376 159.318 128.03 157.327 128.715C155.962 128.943 154.539 129 154.141 129Z" fill="white"/>
<path d="M159.831 129C155.051 129 151.524 125.348 151.524 120.328C151.524 115.364 153.857 111.541 157.498 109.83C158.181 107.376 160.4 105.608 163.017 105.608H165.918C167.625 105.608 169.218 106.349 170.299 107.662C171.38 108.974 171.835 110.628 171.551 112.34L170.299 119.643C170.754 120.67 170.925 121.811 170.698 122.952L170.47 124.15C170.129 126.147 168.763 127.802 166.829 128.544C165.463 129.057 164.041 129.057 163.643 129.057C163.017 129.057 162.448 129 161.879 128.886C161.139 128.943 160.513 129 159.831 129Z" fill="white"/>
<path d="M169.503 129C164.382 129 160.798 125.349 160.798 120.157C160.798 113.481 165.008 108.803 171.096 108.803C176.16 108.803 179.801 112.454 179.801 117.532C179.801 124.322 175.591 129 169.503 129Z" fill="white"/>
<path d="M175.42 128.772C173.713 128.772 172.12 128.03 171.039 126.718C169.958 125.406 169.503 123.694 169.787 122.039L170.47 118.16C170.015 117.133 169.901 115.992 170.129 114.908L170.356 113.652C170.868 110.971 173.201 108.974 175.932 108.974H178.606C178.72 108.974 178.834 108.974 179.004 108.974C179.63 108.803 180.37 108.746 181.053 108.746C182.703 108.746 184.182 109.145 185.434 109.887C187.482 111.085 188.506 113.424 188.108 115.763L187.652 118.502C187.254 120.841 185.434 122.667 183.158 123.123L182.987 124.036C182.532 126.775 180.142 128.772 177.411 128.772H175.42Z" fill="white"/>
<path d="M185.377 129C180.427 129 177.013 125.406 177.013 120.328C177.013 113.538 181.451 108.803 187.823 108.803C189.018 108.803 190.839 108.974 192.887 109.83C195.333 110.857 196.756 113.424 196.301 116.049L195.732 119.529C196.187 120.556 196.357 121.697 196.13 122.838L195.902 124.036C195.561 126.033 194.195 127.688 192.261 128.429C190.895 128.943 189.473 128.943 189.075 128.943C188.506 128.943 187.937 128.886 187.368 128.772C186.742 128.943 186.059 129 185.377 129Z" fill="white"/>
<path fill-rule="evenodd" clip-rule="evenodd" d="M131.44 31.1517C129.79 26.3021 130.359 22.023 132.748 17.5728C136.959 17.5728 140.088 20.1973 142.762 23.9058C140.771 26.1309 139.007 28.5843 137.926 31.5511C136.048 31.0947 133.431 30.8664 131.44 31.1517ZM155.791 17.2304C154.198 12.552 151.012 8.21584 146.972 5.7625L146.858 5.70544L146.745 5.7625C142.705 8.21584 139.576 12.552 137.926 17.2304C140.372 18.7138 142.193 20.4255 143.9 22.4794C144.867 21.3954 145.891 20.3684 146.801 19.2844C147.712 20.3684 148.736 21.3954 149.703 22.4794C151.524 20.4255 153.344 18.7138 155.791 17.2304ZM162.391 31.1517C164.041 26.3021 163.472 22.023 161.082 17.5728C156.872 17.5728 153.743 20.1973 151.069 23.9058C153.06 26.1309 154.824 28.5843 155.905 31.5511C157.782 31.0947 160.4 30.8664 162.391 31.1517ZM146.915 54.8863H145.607V51.9766C140.088 53.8023 135.65 52.7183 131.952 49.6373C132.635 48.6674 133.488 48.0969 134.398 47.8116C129.79 45.2441 127.457 40.7368 128.367 33.4339C129.391 33.0916 130.416 32.9204 131.497 32.8633C133.431 32.7492 135.365 32.9774 137.3 33.4339C136.674 36.0013 136.617 38.9682 137.357 42.5055C137.129 34.7461 140.031 28.356 146.745 23.7346V23.6205C146.801 23.6205 146.801 23.6776 146.858 23.6776C146.915 23.6776 146.915 23.6205 146.972 23.6205V23.7346C153.686 28.356 156.588 34.6891 156.36 42.5055C157.1 38.9682 157.043 36.0013 156.417 33.4339C158.351 32.9774 160.286 32.7492 162.22 32.8633C163.301 32.9204 164.325 33.1486 165.349 33.4339C166.26 40.7368 163.927 45.2441 159.318 47.8116C160.229 48.0969 161.082 48.6674 161.765 49.6373C158.067 52.7183 153.629 53.8023 148.11 51.9766V54.8863H146.915Z" fill="#008080"/>
<path d="M118.809 62.3034C118.581 62.931 118.069 63.6157 117.387 64.4715C116.647 65.3273 115.623 65.9549 114.2 66.4114C112.437 66.8678 109.592 67.6665 105.837 68.7506C102.025 69.8346 97.7007 71.318 92.8077 73.2008C93.3766 76.2818 93.718 79.5339 93.7749 82.9571C93.8318 86.3804 93.4335 89.9748 92.637 93.7975C91.1008 100.815 88.5974 106.406 85.2406 110.514C81.8268 114.622 78.2424 117.589 74.4304 119.472C70.6184 121.298 66.9202 122.325 63.2789 122.439C59.6376 122.553 56.8497 122.096 54.8015 121.012C52.2981 119.7 50.5343 118.046 49.4533 116.106C48.3723 114.166 47.8033 112.055 47.7464 109.83C47.6896 107.605 48.0309 105.322 48.8275 102.926C49.624 100.53 50.5343 98.3048 51.6153 96.3079C52.355 94.8815 53.3791 93.2269 54.8015 91.2871C56.2239 89.4043 57.9876 87.3503 60.0928 85.1252C62.1979 82.9001 64.6444 80.675 67.4892 78.3357C70.334 75.9965 73.577 73.8284 77.1045 71.8315C76.5356 68.9788 75.739 66.1831 74.7718 63.5016C73.8046 60.82 72.6667 58.3096 71.3581 55.9133C70.1633 53.5171 69.4805 50.8926 69.196 47.9257C68.9685 45.016 69.3667 42.2203 70.4477 39.5387C71.5288 36.8572 73.2356 34.4609 75.6252 32.2928C78.0148 30.1248 81.201 28.6413 85.2406 27.8426C88.3129 27.272 90.8732 27.215 92.9215 27.6714C94.9697 28.1279 96.6197 28.8696 97.9283 29.8395C99.3507 30.9235 100.489 32.2358 101.342 33.7762C102.082 33.0345 102.821 32.2358 103.675 31.2658C104.244 30.41 104.983 29.4972 105.837 28.4131C106.69 27.3291 107.487 26.1309 108.34 24.8187C108.568 24.077 108.909 23.5064 109.421 23.05C110.388 22.0801 111.299 21.8519 112.266 22.3083C112.494 22.4224 113.006 22.7647 113.688 23.2782C114.428 23.7917 115.054 24.5905 115.566 25.6175C116.078 26.6444 116.419 27.9567 116.476 29.6683C116.533 31.3229 115.964 33.3198 114.769 35.5449C113.461 37.9412 111.811 40.2234 109.876 42.3344C107.885 44.5025 105.837 46.2711 103.732 47.6975C101.57 49.1239 99.5213 50.1508 97.5869 50.7214C95.6524 51.2919 94.1163 51.2349 93.0353 50.5502C91.9542 49.8085 91.2715 49.1809 90.987 48.5533C90.7025 47.9828 90.6456 47.4122 90.8163 46.8417C90.987 46.3282 91.2715 45.8147 91.7267 45.3012C92.1249 44.8448 92.4663 44.3313 92.6939 43.8749C93.0353 43.1332 93.3197 42.2773 93.6042 41.3074C93.8318 40.2804 93.8887 39.3105 93.7749 38.4547C93.6611 37.5418 93.3197 36.8001 92.8077 36.2296C92.2956 35.659 91.3853 35.3167 90.2474 35.3167C89.1664 35.3167 88.1991 35.7731 87.4026 36.686C86.5492 37.5989 85.8664 38.74 85.3544 40.1093C84.8423 41.4786 84.5009 42.962 84.3871 44.5595C84.2733 46.157 84.444 47.6975 84.8992 49.1239C85.3544 51.0067 86.2078 53.3459 87.4026 56.0275C88.5974 58.709 89.7922 61.847 90.987 65.4414C94.799 64.2433 98.8386 63.2734 103.22 62.5887C107.544 61.847 112.209 61.4476 117.216 61.3335H117.557C117.785 61.3335 118.126 61.3906 118.524 61.5047C118.752 61.5047 118.923 61.7899 118.809 62.3034ZM74.2028 95.5662C76.3649 90.7736 77.5028 86.1522 77.7873 81.5878C72.2115 85.0681 67.2616 89.2331 63.0513 94.1968C58.8411 99.1606 56.3377 104.923 55.6549 111.484C58.0445 111.256 60.3204 110.514 62.4255 109.316C64.303 108.346 66.3513 106.806 68.5133 104.638C70.6184 102.527 72.496 99.5029 74.2028 95.5662Z" fill="#008080"/>
<path d="M139.86 74.1137C138.552 76.8523 137.471 79.705 136.674 82.7289C135.707 85.8098 135.252 88.7196 135.309 91.4011C135.365 94.0827 136.219 96.5931 137.869 98.9894L138.21 99.7311C138.438 100.188 138.438 100.644 138.21 100.986C137.983 101.728 137.186 101.956 135.878 101.728C133.602 101.728 131.667 101.329 130.017 100.473C128.595 99.9023 127.286 98.8182 126.092 97.2777C124.897 95.7373 124.328 93.5122 124.328 90.6594C122.28 93.2839 119.947 95.5661 117.216 97.4489C114.485 99.3317 111.412 99.9593 107.942 99.2176C105.552 98.7612 103.845 97.7342 102.878 96.2508C101.854 94.7674 101.285 92.9987 101.171 90.9447C101.058 88.8907 101.342 86.7227 101.968 84.3264C102.594 81.9301 103.447 79.5909 104.471 77.3658C105.495 75.0836 106.576 72.9726 107.771 71.0327C108.966 69.0929 110.047 67.4953 110.957 66.2972C112.607 64.015 114.712 61.847 117.273 59.6789C119.833 57.5108 122.564 56.655 125.409 56.9973C125.864 57.1115 126.49 57.2826 127.286 57.4538C128.083 57.6249 128.823 58.0243 129.505 58.5949C130.814 59.5648 131.61 60.7629 131.838 62.2463C132.066 63.7298 131.952 65.3273 131.497 66.9819V67.153H131.667C132.748 66.2972 134 66.1831 135.422 66.8107C135.536 66.9248 135.65 66.9819 135.764 66.9819C137.812 68.0659 139.121 69.4923 139.69 71.2609C140.145 72.0597 140.202 73.0296 139.86 74.1137ZM126.49 78.3927C126.831 77.0805 127.286 75.7682 127.741 74.456C128.197 73.1437 128.766 71.8315 129.335 70.5192C128.766 71.0898 128.14 71.6033 127.457 72.0597C126.774 72.4591 125.978 72.6873 125.067 72.6873C123.986 72.6873 123.417 72.5161 123.304 72.1738C123.076 71.7174 123.076 71.0898 123.304 70.4051L123.816 69.8916L123.986 69.7205C124.442 69.1499 124.84 68.18 125.124 66.8678C125.409 65.5555 125.011 64.5285 123.986 63.8439C123.019 63.2733 121.881 63.3874 120.573 64.1862C119.264 65.042 117.955 66.2972 116.647 67.9518C115.338 69.6064 114.143 71.5462 113.062 73.6572C111.981 75.8253 111.299 77.8222 110.9 79.762C110.559 81.6448 110.673 83.3565 111.242 84.7828C111.811 86.2092 113.119 87.008 115.168 87.1221C116.476 87.2362 118.126 86.6656 120.061 85.4104C121.995 84.1552 123.816 82.843 125.523 81.3596C125.75 80.9031 125.921 80.3897 125.978 79.9332C126.092 79.3627 126.205 78.8492 126.49 78.3927Z" fill="#008080"/>
<path d="M178.947 74.1137C177.639 76.8523 176.558 79.705 175.761 82.7289C174.794 85.8098 174.339 88.7196 174.396 91.4011C174.453 94.0827 175.306 96.5931 176.956 98.9894L177.297 99.7311C177.525 100.188 177.525 100.644 177.297 100.986C177.07 101.728 176.273 101.956 174.965 101.728C172.689 101.728 170.754 101.329 169.105 100.473C167.682 99.9023 166.374 98.8182 165.179 97.2777C163.984 95.7373 163.415 93.5122 163.415 90.6594C161.367 93.2839 159.034 95.5661 156.303 97.4489C153.572 99.3317 150.5 99.9593 147.029 99.2176C144.639 98.7612 142.933 97.7342 141.965 96.2508C140.941 94.7674 140.372 92.9987 140.259 90.9447C140.145 88.8907 140.429 86.7227 141.055 84.3264C141.681 81.9301 142.534 79.5909 143.558 77.3658C144.583 75.0836 145.664 72.9726 146.858 71.0327C148.053 69.0929 149.134 67.4953 150.045 66.2972C151.694 64.015 153.8 61.847 156.36 59.6789C158.92 57.5108 161.651 56.655 164.496 56.9973C164.951 57.1115 165.577 57.2826 166.374 57.4538C167.17 57.6249 167.91 58.0243 168.592 58.5949C169.901 59.5648 170.698 60.7629 170.925 62.2463C171.153 63.7298 171.039 65.3273 170.584 66.9819V67.153H170.754C171.836 66.2972 173.087 66.1831 174.51 66.8107C174.623 66.9248 174.737 66.9819 174.851 66.9819C176.899 68.0659 178.208 69.4923 178.777 71.2609C179.232 72.0597 179.289 73.0296 178.947 74.1137ZM165.52 78.3927C165.861 77.0805 166.317 75.7682 166.772 74.456C167.227 73.1437 167.796 71.8315 168.365 70.5192C167.796 71.0898 167.17 71.6033 166.487 72.0597C165.805 72.4591 165.008 72.6873 164.098 72.6873C163.017 72.6873 162.448 72.5161 162.334 72.1738C162.106 71.7174 162.106 71.0898 162.334 70.4051L162.846 69.8916L163.017 69.7205C163.472 69.1499 163.87 68.18 164.155 66.8678C164.439 65.5555 164.041 64.5285 163.017 63.8439C162.049 63.2733 160.912 63.3874 159.603 64.1862C158.294 65.042 156.986 66.2972 155.677 67.9518C154.369 69.6064 153.174 71.5462 152.093 73.6572C151.012 75.8253 150.329 77.8222 149.931 79.762C149.589 81.6448 149.703 83.3565 150.272 84.7828C150.841 86.2092 152.15 87.008 154.198 87.1221C155.506 87.2362 157.156 86.6656 159.091 85.4104C161.025 84.1552 162.846 82.843 164.553 81.3596C164.78 80.9031 164.951 80.3897 165.008 79.9332C165.179 79.3627 165.293 78.8492 165.52 78.3927Z" fill="#008080"/>
<path d="M205.916 82.2725C206.257 82.1584 206.542 82.1584 206.826 82.3296C207.111 82.5007 207.281 82.6719 207.452 82.9001C207.68 83.1283 207.907 83.4707 208.078 83.87C208.818 85.981 209.159 87.8068 209.102 89.3473C208.988 90.9448 208.647 92.257 207.964 93.3981C207.281 94.5392 206.371 95.5091 205.29 96.3079C204.152 97.1067 202.957 97.7343 201.649 98.2477C198.633 99.3888 194.935 100.073 190.611 100.245C188.335 100.245 186.23 100.073 184.353 99.7312H184.239C183.158 99.5029 182.361 99.1606 181.906 98.6471C181.451 98.1336 181.166 97.8484 181.053 97.7343C179.972 96.0226 179.403 94.2539 179.403 92.4282C179.346 91.4583 179.403 90.4883 179.63 89.5755C179.858 88.6626 180.085 87.8068 180.484 87.008C180.882 86.0381 181.735 84.7259 183.044 83.1854C184.353 81.6449 185.775 80.0474 187.368 78.3928C188.961 76.7382 190.44 75.1978 191.92 73.7144C193.399 72.2309 194.594 71.1469 195.447 70.2911C196.414 69.3212 197.894 67.9519 199.828 66.1832C201.763 64.4145 203.811 62.7599 206.03 61.2194C203.981 61.6188 202.161 62.0182 200.454 62.4176C198.747 62.817 197.666 63.0452 197.154 63.1593C194.935 63.6728 192.944 63.8439 191.123 63.6728C189.302 63.5016 187.937 62.6458 186.97 61.0483C186.401 60.1925 186.116 59.2796 186.116 58.3667C186.116 57.568 186.344 56.6551 186.856 55.6852C187.368 54.7152 188.392 53.6883 189.928 52.7183C190.213 52.6042 190.497 52.5472 190.782 52.4901C191.066 52.4331 191.294 52.6613 191.408 53.0607C191.408 53.403 191.464 53.8024 191.635 54.1447C191.806 54.5441 192.033 54.8864 192.375 55.1717C192.716 55.514 193.228 55.7422 193.854 55.9704C194.48 56.1987 195.276 56.2557 196.301 56.2557H196.471C196.642 56.2557 196.813 56.1987 196.983 56.1416C197.382 56.0845 198.235 56.0275 199.487 55.9704C200.738 55.9134 202.104 55.8563 203.526 55.8563C204.949 55.7993 206.428 55.7993 207.793 55.7422C209.216 55.6852 210.24 55.6281 210.923 55.6281H211.093C211.207 55.6281 211.435 55.6281 211.833 55.5711C212.231 55.5711 212.686 55.5711 213.255 55.6281C213.654 55.5711 214.166 55.5711 214.792 55.5711C215.417 55.6281 216.043 55.6852 216.669 55.7993C217.636 55.9704 218.49 56.2557 219.173 56.6551C219.855 57.0545 220.254 57.7391 220.367 58.652V58.9373V59.3366C220.367 59.5078 220.31 59.679 220.197 59.9072C219.912 60.706 219.343 61.4477 218.433 62.0753C218.148 62.2464 217.921 62.3035 217.807 62.2464C217.636 62.1894 217.523 62.1323 217.409 62.0753C217.238 61.79 216.954 61.5047 216.555 61.2765C216.157 61.3906 215.304 61.79 214.052 62.4176C212.8 63.0452 210.923 64.3574 208.476 66.2402C207.281 67.3243 206.087 68.4654 204.949 69.6064C203.811 70.7475 202.673 71.8886 201.592 73.0297C201.478 73.1438 201.364 73.2579 201.307 73.315C201.194 73.4291 201.137 73.4861 201.023 73.6002C200.966 73.6573 200.909 73.7144 200.909 73.7144C200.909 73.7714 200.852 73.7714 200.795 73.8285C200.625 73.9996 200.511 74.1708 200.454 74.2849C199.885 74.9125 199.316 75.5972 198.69 76.2248C198.121 76.9094 197.552 77.5941 197.04 78.2787C196.414 79.0775 195.732 79.9333 195.049 80.8462C194.366 81.759 193.683 82.6719 192.944 83.6989C192.318 84.5547 191.578 85.5246 190.782 86.4945C189.985 87.4645 189.246 88.4914 188.62 89.5184C187.937 90.5454 187.425 91.5153 186.97 92.4853C186.515 93.4552 186.401 94.311 186.571 95.0527C186.742 95.0527 186.913 95.0527 187.14 94.9956C187.368 94.9386 187.539 94.9386 187.766 94.9386C190.27 94.7674 192.489 94.2539 194.423 93.4552C196.357 92.6564 198.064 91.7435 199.43 90.7736C200.852 89.8037 201.99 88.7767 202.844 87.7497C203.754 86.7228 204.38 85.924 204.721 85.3535C205.006 84.897 205.176 84.4976 205.233 84.2124C205.29 83.9271 205.347 83.6989 205.347 83.5848V83.4136C205.29 82.9572 205.404 82.6148 205.631 82.3866C205.688 82.4437 205.802 82.3296 205.916 82.2725Z" fill="#008080"/>
<path d="M91.7267 121.868L92.2387 121.811C92.5232 121.754 92.6939 121.697 92.7508 121.298L94.1163 113.481L93.2628 113.424L93.4904 112.112H97.6438C100.602 112.112 102.309 113.595 102.309 116.334C102.309 121.298 99.2369 123.123 96.0507 123.123H91.4991L91.7267 121.868ZM94.6852 121.583H96.1076C98.7248 121.583 100.261 119.586 100.261 116.562C100.261 114.679 99.5782 113.595 97.4731 113.595H96.1076L94.6852 121.583Z" fill="#7D7D80"/>
<path d="M106.804 114.736L105.609 121.526C105.552 121.868 105.609 121.868 105.894 121.868H106.235C106.292 121.868 106.406 121.868 106.519 121.868L106.292 123.123C105.951 123.238 105.325 123.295 104.926 123.295C103.675 123.295 103.39 122.61 103.618 121.469L104.528 116.505C104.585 116.106 104.528 116.049 104.187 115.992L103.732 115.935L103.959 114.679H106.804V114.736ZM106.349 111.256C106.975 111.256 107.373 111.655 107.373 112.169C107.373 112.968 106.747 113.481 105.951 113.481C105.325 113.481 104.926 113.082 104.926 112.511C104.926 111.827 105.552 111.256 106.349 111.256Z" fill="#7D7D80"/>
<path d="M111.981 115.878C111.185 115.878 110.502 116.163 110.502 116.962C110.502 117.646 111.185 117.817 111.925 118.103C113.062 118.559 114.143 118.901 114.143 120.442C114.143 122.211 112.892 123.352 110.559 123.352C109.478 123.352 108.226 123.066 107.714 122.781L108.056 120.67L109.592 120.556L109.478 121.412C109.421 121.64 109.478 121.754 109.649 121.811C109.819 121.868 110.218 121.982 110.616 121.982C111.469 121.982 112.152 121.64 112.152 120.784C112.152 120.1 111.526 119.985 110.787 119.7C109.763 119.358 108.625 118.901 108.625 117.304C108.625 115.592 109.933 114.622 112.209 114.622C113.119 114.622 114.2 114.793 114.826 115.193L114.485 117.133L113.006 117.247L113.119 116.505C113.176 116.22 113.119 116.163 112.949 116.049C112.664 115.935 112.323 115.878 111.981 115.878Z" fill="#7D7D80"/>
<path d="M116.021 114.908C117.159 114.736 117.671 113.995 118.24 112.854H119.321L118.98 114.736H121.142L120.8 116.163H118.752L118.012 120.499C117.842 121.526 118.069 121.754 118.752 121.754C119.264 121.754 119.719 121.583 120.061 121.412L120.288 122.724C119.776 123.066 119.036 123.295 118.126 123.295C115.68 123.295 115.85 121.697 116.021 120.556L116.818 116.163H115.68L116.021 114.908Z" fill="#7D7D80"/>
<path d="M124.555 118.217L123.702 123.066H121.767L122.905 116.505C122.962 116.163 122.905 116.106 122.621 116.049L122.052 115.992L122.28 114.736H124.954L124.783 115.992C125.238 115.193 126.035 114.508 127.4 114.508C127.855 114.508 128.481 114.565 128.879 114.851L128.424 117.589L126.774 117.703L126.945 116.733C127.002 116.505 126.945 116.334 126.888 116.277C126.774 116.22 126.66 116.22 126.433 116.22C125.466 116.22 124.783 116.962 124.555 118.217Z" fill="#7D7D80"/>
<path d="M132.805 114.736L131.61 121.526C131.553 121.868 131.61 121.868 131.895 121.868H132.236C132.293 121.868 132.407 121.868 132.521 121.868L132.293 123.123C131.952 123.238 131.326 123.295 130.928 123.295C129.676 123.295 129.391 122.61 129.619 121.469L130.529 116.505C130.586 116.106 130.529 116.049 130.188 115.992L129.733 115.935L129.96 114.679H132.805V114.736ZM132.293 111.256C132.919 111.256 133.317 111.655 133.317 112.169C133.317 112.968 132.691 113.481 131.895 113.481C131.269 113.481 130.871 113.082 130.871 112.511C130.871 111.827 131.497 111.256 132.293 111.256Z" fill="#7D7D80"/>
<path d="M137.243 115.478C137.812 114.793 138.665 114.508 139.462 114.508C141.112 114.508 141.965 115.592 141.965 117.703C141.965 121.126 140.372 123.295 137.129 123.295C136.048 123.295 134.569 122.952 134 122.61L135.707 113.082C135.764 112.739 135.65 112.625 135.365 112.625L134.853 112.568L135.081 111.313H137.926L137.243 115.478ZM136.162 121.526C136.447 121.697 136.845 121.811 137.414 121.811C139.348 121.811 139.917 119.529 139.917 117.874C139.917 116.676 139.576 115.992 138.609 115.992C137.755 115.992 137.072 116.448 136.902 117.475L136.162 121.526Z" fill="#7D7D80"/>
<path d="M150.045 121.526C149.988 121.811 150.045 121.868 150.386 121.868C150.443 121.868 150.613 121.868 150.727 121.868C150.784 121.868 150.898 121.868 150.955 121.868L150.727 123.123C150.443 123.238 149.874 123.295 149.532 123.295C148.736 123.295 148.224 122.952 148.281 121.982H148.224C147.655 122.895 146.745 123.295 145.72 123.295C143.9 123.295 143.217 122.154 143.558 120.385L144.241 116.505C144.298 116.163 144.184 116.049 143.9 116.049L143.445 115.992L143.672 114.736H146.517L145.55 120.1C145.379 121.184 145.493 121.697 146.46 121.697C147.2 121.697 148.167 121.241 148.395 119.757L149.248 114.736H151.182L150.045 121.526Z" fill="#7D7D80"/>
<path d="M155.962 114.736L154.767 121.526C154.71 121.868 154.767 121.868 155.051 121.868H155.393C155.45 121.868 155.563 121.868 155.677 121.868L155.45 123.123C155.108 123.238 154.482 123.295 154.084 123.295C152.832 123.295 152.548 122.61 152.776 121.469L153.686 116.505C153.743 116.106 153.686 116.049 153.344 115.992L152.889 115.935L153.117 114.679H155.962V114.736ZM155.45 111.256C156.075 111.256 156.474 111.655 156.474 112.169C156.474 112.968 155.848 113.481 155.051 113.481C154.425 113.481 154.027 113.082 154.027 112.511C154.027 111.827 154.653 111.256 155.45 111.256Z" fill="#7D7D80"/>
<path d="M164.098 121.583C164.041 121.868 164.098 121.925 164.439 121.925L165.008 121.868L164.78 123.066C164.439 123.18 163.87 123.238 163.529 123.238C162.562 123.238 162.277 122.724 162.334 122.039H162.277C161.765 122.724 160.968 123.238 159.774 123.238C157.953 123.238 157.156 121.982 157.156 120.271C157.156 116.904 158.806 114.451 162.049 114.451C162.391 114.451 162.96 114.508 163.358 114.622L163.643 113.025C163.699 112.682 163.586 112.568 163.301 112.568L162.732 112.511L162.96 111.256H165.861L164.098 121.583ZM162.448 119.7L163.074 116.22C162.732 116.049 162.391 115.992 161.993 115.992C159.944 115.992 159.262 118.445 159.262 120.271C159.262 121.069 159.489 121.868 160.456 121.868C161.367 121.811 162.22 121.184 162.448 119.7Z" fill="#7D7D80"/>
<path d="M171.096 114.508C172.234 114.508 174.111 114.965 174.111 117.532C174.111 120.499 172.803 123.295 169.503 123.295C167.568 123.295 166.487 122.211 166.487 120.157C166.487 117.19 167.853 114.508 171.096 114.508ZM172.12 117.646C172.12 116.562 171.779 115.935 170.811 115.935C168.877 115.935 168.479 118.616 168.479 120.1C168.479 121.069 168.763 121.754 169.787 121.754C171.665 121.811 172.12 119.13 172.12 117.646Z" fill="#7D7D80"/>
<path d="M178.208 118.217L177.354 123.066H175.42L176.558 116.505C176.615 116.163 176.558 116.106 176.273 116.049L175.704 115.992L175.932 114.736H178.606L178.435 115.992C178.891 115.193 179.687 114.508 181.053 114.508C181.508 114.508 182.134 114.565 182.532 114.851L182.077 117.589L180.427 117.703L180.597 116.733C180.654 116.505 180.597 116.334 180.541 116.277C180.427 116.22 180.313 116.22 180.085 116.22C179.118 116.22 178.435 116.962 178.208 118.217Z" fill="#7D7D80"/>
<path d="M189.587 121.583C189.53 121.868 189.587 121.925 189.928 121.925C189.985 121.925 190.156 121.925 190.27 121.925C190.327 121.925 190.44 121.925 190.554 121.925L190.327 123.123C189.985 123.238 189.473 123.295 189.132 123.295C188.165 123.295 187.823 122.724 187.937 122.096H187.88C187.425 122.781 186.571 123.295 185.434 123.295C183.499 123.295 182.759 122.039 182.759 120.328C182.759 116.962 184.409 114.508 187.88 114.508C188.563 114.508 189.644 114.622 190.725 115.079L189.587 121.583ZM187.88 119.928L188.506 116.163C188.221 116.049 187.88 115.935 187.425 115.935C185.32 115.935 184.694 118.274 184.694 120.157C184.694 121.012 184.921 121.811 185.946 121.811C186.856 121.868 187.652 121.298 187.88 119.928Z" fill="#7D7D80"/>
</g>
<path d="M7.19924 172.474L26.9114 171.097H51.7659L75.8777 173.909L104.732 171.097H132.272L155.184 172.532L183.98 171.097H213.177L227.233 174.483L257.344 172.474L269 164.495L263.343 153.991L261.744 142.683L244.888 137L219.634 141.879H196.893L166.554 137.804L139.014 137L113.417 140.272L86.3337 137.804L55.8226 137L48.452 139.87H19.2551L0 144.692L1.59983 155.77L2.7997 169.317L7.19924 172.474Z" fill="#FF6B10"/>
<path d="M10.0561 173.048L29.254 171.671H53.5372L77.0204 174.426L105.075 171.671H131.986L154.326 173.048L182.381 171.671H210.835L224.548 175L253.859 173.048L265.229 165.242L259.744 154.967L258.201 143.946L241.746 138.435L217.12 143.199H194.951L165.411 139.239L138.5 138.435L113.588 141.592L87.1908 139.239L57.4225 138.435L50.2232 141.19H21.8263L3.02826 145.955L4.57095 156.689L5.77083 169.891L10.0561 173.048Z" fill="#00E1F6"/>
<path d="M22.3976 162.486L22.2833 162.601L20.5692 162.429H16.3411L15.5412 162.486L15.3698 161.683L15.1984 159.789V158.181L15.1412 157.779L15.2555 156.746L15.1412 156.402V154.508L15.3127 153.819V151.924L15.0841 151.637L15.1984 151.523V148.251H21.5406L21.8834 148.193L22.2262 148.538L22.1119 148.997V154.278H21.712L21.3692 154.106H21.1977L21.0835 153.934L20.7406 154.048H20.5121L20.1121 153.934V151.465L20.1693 151.121V150.26H17.141V151.293L17.4267 154.106L17.3124 154.393V158.755L17.1982 158.813L17.3696 158.985L17.2553 159.329V159.674L17.3696 159.731L17.3124 160.535L17.9409 160.65H20.3978V157.263L22.3405 156.746V162.486H22.3976Z" fill="#312F2D"/>
<path d="M30.6825 161.511L30.7396 162.372H23.9974L23.6546 155.943V151.236L23.4261 150.834L23.5975 150.662V148.48H30.3396L30.3968 148.71V149.629L30.3396 149.801L30.5682 150.834H29.1969L25.883 151.006L25.7116 151.064V151.408L25.483 151.523L25.7116 153.991L26.9114 153.934L27.5971 153.991L28.9112 154.278V155.082L28.7969 155.598L28.9112 155.885V156.287L25.7116 156.517L25.6544 156.689L25.5401 157.378V157.894L25.6544 158.067V159.731L25.883 159.846H29.0255L29.4826 159.731L30.8539 159.502L30.6825 161.511Z" fill="#312F2D"/>
<path d="M31.768 160.764L31.5966 160.477L31.7109 160.305V157.78L31.4824 157.665L31.5966 157.55V156.517L31.4824 156.344L31.5966 155.828V148.595H38.9673V149.054L39.1958 150.145V150.662L39.1387 150.776L39.4815 153.704L39.4244 153.876L39.3101 153.934L38.1102 153.876H37.596L37.4817 153.991L37.9388 156.23L38.7387 159.444L38.9101 160.477L38.853 160.535L38.9673 160.65L39.0816 161.453L39.0244 161.74L39.1958 161.912L39.3672 163.003H37.3675L36.5675 160.42L36.2819 159.444L35.4819 155.598L35.1963 153.991H33.7107L33.9964 158.239V159.846L34.0535 161.166L33.8821 162.946L31.9966 163.003L31.8252 162.831V162.486V160.764H31.768ZM37.196 152.039L37.1389 151.465L37.196 150.776H33.5964L33.7107 151.351V151.752L33.5964 152.039H37.196Z" fill="#312F2D"/>
<path d="M48.2234 148.538L47.195 156.172L47.0807 156.344L46.5093 158.813V159.444L45.7094 163.003H42.6812V162.257L42.4526 160.764L42.2241 160.018L42.3384 159.903L41.4242 154.909V154.68L40.9671 152.097L41.0242 151.523L40.6243 149.686L40.51 148.595H42.1669L44.2239 160.592L44.9666 155.77L46.1665 149.456V148.71L48.2234 148.538Z" fill="#312F2D"/>
<path d="M56.394 162.946L55.6512 162.888L55.3655 162.946L55.1941 162.831L54.4514 162.946H49.5947V162.085L49.4233 161.396V148.71L49.2519 148.653H55.8798L56.2797 148.825V150.891L55.9941 150.776H52.2802H51.4231L51.3088 150.891V152.269L51.4231 153.015V154.335L51.5945 154.45H53.5372L54.7942 154.335L54.8513 155.196L54.7942 155.254L54.9085 156.631H51.4231L51.6517 157.894V159.502L51.5945 160.133L51.6517 160.994H56.4511V162.946H56.394Z" fill="#312F2D"/>
<path d="M63.479 157.206L63.2504 157.837L63.4218 157.894L63.2504 158.755L63.4218 159.042L63.3076 159.157V162.429H56.9082L56.2797 162.199V156.459L57.1368 156.689L57.3082 156.632L57.4225 156.804L57.651 156.746L58.3938 156.804V159.272L58.3366 159.559V160.477H61.3649L61.0792 156.574L61.1935 156.345V152.097L61.3078 151.982L61.1364 151.81V148.251H63.0219L63.2504 151.925L63.3647 153.13L63.3076 154.106L63.4218 154.622L63.2504 156.861L63.479 157.206Z" fill="#312F2D"/>
<path d="M72.2209 162.831L72.1638 162.888H71.7638L70.7353 162.716L70.5068 162.773L70.1068 162.372L70.164 161.625L69.9926 161.511V161.338L70.1068 161.224L69.764 160.65L69.8783 160.363L69.2498 160.535L68.7927 160.477L67.3643 160.535L67.1929 160.305L66.9643 160.879L66.6786 162.142L66.6215 162.831L64.6788 162.659L65.4216 156.517L66.2787 151.982L66.4501 151.408V150.604L66.5644 150.432V149.858L66.7358 149.514L66.85 148.595L69.5355 148.71L69.5926 149.456L69.764 149.973L69.9354 150.375L70.0497 150.432V151.236L70.2782 151.638L70.2211 152.039H70.3354L70.7353 154.048L70.9068 154.278L71.1353 155.77L71.3638 156.689L71.3067 156.861L71.7067 158.296L71.8209 158.985L71.8781 159.674L72.0495 160.018V160.133L71.9352 160.305L71.9924 160.535L72.1066 161.798L72.2209 162.831ZM68.3927 152.269H68.1642L67.65 156.861H67.8214V156.976L67.5357 157.665L67.3643 158.296L67.7642 158.239L69.3069 158.124L68.3927 152.269Z" fill="#312F2D"/>
<path d="M81.1342 159.1V162.831H73.5922L73.4779 162.659V162.429L73.5922 162.085V156.804L73.6493 156.746L74.2778 156.804H75.592V160.764L75.7062 160.879H76.7918L76.9061 160.764L76.9632 160.822H79.0202L78.9059 160.133V157.607L75.5348 155.483L73.7064 154.163H73.5922L73.4779 153.819V153.073L73.3636 151.465V148.595H78.6202L80.9057 148.538V153.474L80.7343 153.532L79.5915 153.474L79.0202 153.532L78.9059 153.417V150.604L78.6774 150.432L78.106 150.317H77.7632L77.5918 150.49H75.4206V151.465L75.5348 152.786L79.5915 155.483L81.0771 156.344V159.042L81.1342 159.1Z" fill="#312F2D"/>
<path d="M94.3328 162.831L94.2757 162.888H93.8758L92.8473 162.716L92.6187 162.773L92.2188 162.372L92.2759 161.625L92.1045 161.511V161.338L92.2188 161.224L91.876 160.65L91.9902 160.363L91.3617 160.535L90.9046 160.477L89.4762 160.535L89.3048 160.305L89.0763 160.879L88.7906 162.142L88.562 162.831L86.6194 162.659L87.3621 156.517L88.2192 151.982L88.3906 151.408V150.604L88.5049 150.432V149.858L88.6763 149.514L88.7906 148.595L91.476 148.71L91.5331 149.456L91.7046 149.973L91.876 150.375L91.9902 150.432V151.236L92.2188 151.638L92.1616 152.039H92.2759L92.6759 154.048L92.8473 154.278L93.0758 155.77L93.3044 156.689L93.2472 156.861L93.6472 158.296L93.7615 158.985L93.8186 159.674L93.99 160.018V160.133L93.8758 160.305L93.9329 160.535L94.0472 161.798L94.3328 162.831ZM90.5618 152.269H90.3333L89.819 156.861H89.9904V156.976L89.7048 157.665L89.5333 158.296L89.9333 158.239L91.476 158.124L90.5618 152.269Z" fill="#312F2D"/>
<path d="M103.189 151.637L103.132 151.982V153.991L101.418 154.106L101.646 155.713L101.703 155.77L102.503 159.387L102.446 159.616L103.132 162.888H101.361L99.3037 154.106L99.0181 154.163H98.3895L98.1039 154.106L97.8753 154.221L98.0467 158.296L97.9325 158.583L98.0467 158.985V159.215L97.9896 159.387L98.1039 160.076L97.9325 160.19L98.1039 160.42L97.9325 161.166V162.372L97.9896 162.888H95.9327L95.9898 162.257V155.598L95.7613 152.556L95.8184 150.776V148.71L95.8755 148.423H103.018L103.189 148.653L103.132 148.882V151.523L103.189 151.637ZM101.018 151.121L100.961 150.662H97.7039V151.58L100.961 151.637L101.018 151.121Z" fill="#312F2D"/>
<path d="M112.445 151.121H109.531V163.175L107.989 163.061L107.646 163.233H107.303V159.157L107.246 158.985L107.303 158.87L107.131 157.148L107.074 157.033L107.246 156.574V151.178H104.332V148.767H112.388V149.227L112.331 149.399L112.445 149.571V151.121Z" fill="#312F2D"/>
<path d="M120.444 161.511L120.501 162.372H113.759L113.474 155.943V151.236L113.245 150.834L113.417 150.662V148.48H120.159L120.216 148.71V149.629L120.159 149.801L120.387 150.834H119.016L115.702 151.006L115.531 151.121V151.465L115.302 151.58L115.531 154.048L116.73 153.991L117.416 154.048L118.73 154.335V155.139L118.616 155.656L118.73 155.943V156.345L115.531 156.517L115.473 156.689L115.359 157.378V157.894L115.473 158.067V159.731L115.702 159.846H118.845L119.302 159.731L120.673 159.502L120.444 161.511Z" fill="#312F2D"/>
<path d="M129.186 160.19L128.901 161.453V161.912L129.072 162.142L129.015 162.831L127.586 162.773L127.415 162.831H121.816L121.701 162.429L121.587 161.224V157.033L121.644 156.919L122.444 156.861H123.701V157.78L123.815 157.952L123.701 158.067V159.846L123.644 160.018L123.758 160.879H127.129L126.901 157.435L121.473 154.852V148.653H124.558L124.672 148.595L125.015 148.653L125.072 148.71L125.701 148.595L125.815 148.71L126.444 148.538H126.729L126.787 148.653L128.272 148.538L128.386 148.653L128.843 148.767L128.901 149.628L128.786 149.686L129.015 150.03V150.547L128.958 150.662L129.072 150.891V154.221L127.129 154.048L126.958 153.417V150.834L126.615 150.777L125.701 150.834H123.587V151.58L123.701 151.752L123.644 151.982V152.441L123.701 152.499L123.644 152.671V153.073L123.873 153.245L128.329 155.598V155.77L129.186 156.172V156.287L129.072 156.344L129.186 159.1L129.072 159.674L129.186 159.731V159.961V160.19Z" fill="#312F2D"/>
<path d="M136.386 163.118L135.757 160.42H132.557L132.1 163.003H130.272L131.7 152.556L131.815 152.498L132.043 151.178L132.386 149.915L132.5 148.767H134.386L135.186 148.71L135.3 149.112V149.514L135.414 149.628L135.814 151.063L136.328 153.302L137.414 159.042L138.042 163.06H136.386V163.118ZM135.357 158.124L134.043 152.039V153.417L133.129 158.124H135.357Z" fill="#312F2D"/>
<path d="M147.07 157.033L147.127 157.091L147.013 157.378L147.07 157.435L146.956 159.387L147.07 159.616L146.956 159.674V159.961L147.127 160.018L146.956 160.19L146.842 160.592L146.784 162.831H144.556L144.442 162.601L144.499 162.429L143.756 160.937L142.785 158.641L141.699 155.885L141.299 154.565V155.943L141.414 156.23L141.299 156.804L141.471 157.952V158.124L141.528 158.239L141.356 162.659L141.014 162.773H140.271L140.157 162.659L139.985 162.716H139.585L139.299 162.659L138.957 153.474V150.776L139.185 148.595L139.642 148.71H140.614L140.956 148.595L142.385 151.81L142.499 151.867L142.442 151.925L142.671 152.384V152.613L143.356 153.991L144.442 157.091L144.556 157.205L144.213 149.054L144.385 148.595H146.442L146.67 151.006V151.58L146.842 153.015L146.899 153.073V153.245L146.784 153.302L147.07 157.033Z" fill="#312F2D"/>
<path d="M154.326 163.118L153.698 160.42H150.498L150.041 163.003H148.213L149.641 152.556L149.756 152.498L149.984 151.178L150.327 149.915L150.441 148.767H152.327L153.127 148.71L153.241 149.112V149.514L153.355 149.628L153.755 151.063L154.269 153.302L155.355 159.042L155.983 163.06H154.326V163.118ZM153.241 158.124L151.927 152.039V153.417L151.013 158.124H153.241Z" fill="#312F2D"/>
<path d="M159.926 159.329L159.754 159.903V162.257H159.64V163.003L159.697 163.061H157.24L157.012 162.142L157.126 161.855V160.535L157.012 157.148L157.069 156.976V155.196L156.955 155.024L157.069 154.852L157.012 154.048L157.069 152.786L157.126 152.728L157.012 152.671L157.069 152.269L157.183 152.039L157.012 151.867L157.126 151.523V149.341L157.24 148.595H158.84L159.469 148.538L159.754 150.891V157.206L159.812 158.583L159.754 159.329H159.926Z" fill="#312F2D"/>
<path d="M168.896 159.1V162.831H161.354L161.24 162.659V162.429L161.354 162.085V156.804L161.411 156.746L162.04 156.804H163.354V160.764L163.468 160.879H164.554L164.668 160.764L164.725 160.822H166.782L166.668 160.133V157.607L163.297 155.483L161.469 154.163H161.354L161.24 153.819V153.073L161.126 151.465V148.595H166.382L168.668 148.538V153.474L168.496 153.532L167.354 153.474L166.782 153.532L166.668 153.417V150.604L166.439 150.432L165.868 150.317H165.525L165.354 150.49H163.183V151.465L163.297 152.786L167.354 155.483L168.839 156.344V159.042L168.896 159.1Z" fill="#312F2D"/>
<path d="M181.409 162.946L180.667 162.888L180.381 162.946L180.209 162.831L179.467 162.946H174.61V162.085L174.439 161.396V148.71L174.267 148.653H180.895L181.295 148.825V150.891L181.009 150.776H177.295L176.496 150.834L176.381 150.949V152.326L176.496 153.073V154.393L176.667 154.508H178.61L179.867 154.393L179.924 155.254L179.867 155.311L179.981 156.689H176.496L176.724 157.952V159.559L176.667 160.19L176.724 161.051H181.524V162.946H181.409Z" fill="#312F2D"/>
<path d="M193.522 162.946L192.779 162.888L192.494 162.946L192.322 162.831L191.58 162.946H186.723V162.085L186.552 161.396V148.71L186.38 148.653H193.008L193.408 148.825V150.891L193.122 150.776H189.408L188.609 150.834L188.494 150.949V152.326L188.609 153.073V154.393L188.78 154.508H190.723L191.98 154.393L192.037 155.254L191.98 155.311L192.094 156.689H188.609L188.837 157.952V159.559L188.78 160.19L188.837 161.051H193.637V162.946H193.522Z" fill="#312F2D"/>
<path d="M202.036 159.1V162.831H194.494L194.379 162.659V162.429L194.494 162.085V156.804L194.551 156.746L195.179 156.804H196.493V160.764L196.608 160.879H197.693L197.808 160.764L197.865 160.822H199.922L199.807 160.133V157.607L196.436 155.483L194.608 154.163H194.494L194.379 153.819V153.073L194.265 151.465V148.595H199.522L201.807 148.538V153.474L201.636 153.532L200.493 153.474L199.922 153.532L199.807 153.417V150.604L199.579 150.432L199.007 150.317H198.665L198.493 150.49H196.322V151.465L196.436 152.786L200.493 155.483L201.979 156.344V159.042L202.036 159.1Z" fill="#312F2D"/>
<path d="M210.778 149.112L210.663 149.341V154.163H205.064V159.042L205.292 162.888L205.121 163.003L204.721 162.888H204.607L204.493 163.003L204.15 162.888H203.635L203.293 163.003V149.112L203.178 148.882L203.236 148.653L204.321 148.71L204.607 148.653L204.721 148.71L206.15 148.653L206.264 148.71H209.235L210.549 148.767V148.882L210.778 149.112ZM208.835 152.039V150.776H205.007L205.178 151.523V152.097H208.835V152.039Z" fill="#312F2D"/>
<path d="M218.605 161.511L218.663 162.372H211.92L211.635 155.943V151.236L211.406 150.834L211.578 150.662V148.48H218.263L218.32 148.71V149.629L218.263 149.801L218.491 150.834H217.12L213.806 151.006L213.634 151.121V151.465L213.406 151.58L213.634 154.048L214.834 153.991L215.52 154.048L216.834 154.335V155.139L216.72 155.656L216.834 155.943V156.345L213.692 156.517L213.634 156.689L213.52 157.378V157.894L213.634 158.067V159.731L213.863 159.846H217.006L217.463 159.731L218.834 159.502L218.605 161.511Z" fill="#312F2D"/>
<path d="M226.719 162.486L226.604 162.601L224.89 162.429H220.662L219.862 162.486L219.748 161.625L219.577 159.731V158.124L219.52 157.722L219.634 156.689L219.52 156.344V154.45L219.691 153.761V151.867L219.462 151.58L219.577 151.465V148.193H225.919L226.262 148.136L226.604 148.48L226.49 148.94V154.221L225.976 154.163L225.633 153.991H225.462L225.347 153.819L225.005 153.934H224.776L224.376 153.819V151.35L224.433 151.006V150.145H221.405V151.178L221.691 153.991L221.576 154.278V158.641L221.462 158.755L221.634 158.928L221.519 159.272V159.616L221.634 159.674L221.576 160.477L222.205 160.592H224.662V157.205L226.604 156.689V162.486H226.719Z" fill="#312F2D"/>
<path d="M230.718 148.653V161.109L230.547 163.175L228.204 162.888V148.882L228.033 148.825L228.376 148.653H230.718Z" fill="#312F2D"/>
<path d="M239.803 162.831L239.746 162.888H239.346L238.318 162.716L238.089 162.773L237.689 162.372L237.746 161.625L237.575 161.511V161.338L237.689 161.224L237.346 160.65L237.461 160.363L236.832 160.535L236.375 160.477L234.946 160.535L234.775 160.305L234.547 160.879L234.261 162.142L234.204 162.831L232.261 162.659L233.004 156.517L233.861 151.982L234.032 151.408V150.604L234.147 150.432V149.858L234.318 149.514L234.432 148.595L237.118 148.71L237.175 149.456L237.346 149.973L237.518 150.375L237.632 150.432V151.236L237.86 151.638L237.803 152.039H237.918L238.318 154.048L238.489 154.278L238.718 155.77L238.946 156.689L238.889 156.861L239.289 158.296L239.403 158.985L239.46 159.674L239.632 160.018V160.133L239.517 160.305L239.575 160.535L239.689 161.798L239.803 162.831ZM236.032 152.269H235.804L235.289 156.861H235.461V156.976L235.175 157.665L235.004 158.296L235.404 158.239L236.946 158.124L236.032 152.269Z" fill="#312F2D"/>
<path d="M243.688 148.653V161.109L243.517 163.175L241.174 162.888V148.882L241.003 148.825L241.346 148.653H243.688Z" fill="#312F2D"/>
<path d="M253.116 160.19L252.83 161.453V161.912L253.002 162.142L252.945 162.831L251.516 162.773L251.345 162.831H245.688L245.574 162.429L245.46 161.224V157.033L245.517 156.919L246.317 156.861H247.574V157.78L247.688 157.952L247.574 158.067V159.846L247.517 160.018L247.631 160.879H251.002L250.773 157.435L245.345 154.852V148.653H248.431L248.545 148.595L248.888 148.653L248.945 148.71L249.573 148.595L249.688 148.71L250.316 148.538H250.602L250.659 148.653L252.145 148.538L252.259 148.653L252.716 148.767L252.773 149.628L252.659 149.686L252.887 150.03V150.547L252.83 150.662L252.945 150.891V154.221L251.002 154.048L250.831 153.417V150.834L250.488 150.777L249.573 150.834H247.459V151.58L247.574 151.752L247.517 151.982V152.441L247.574 152.499L247.517 152.671V153.073L247.745 153.245L252.202 155.598V155.77L253.059 156.172V156.287L252.945 156.344L253.059 159.1L252.945 159.674L253.059 159.731V159.961L253.116 160.19Z" fill="#312F2D"/>
<defs>
<clipPath id="clip0">
<rect width="184" height="129" fill="white" transform="translate(42)"/>
</clipPath>
</defs>
</svg>
