<svg width="144" height="97" viewBox="0 0 144 97" fill="none" xmlns="http://www.w3.org/2000/svg">
<path fill-rule="evenodd" clip-rule="evenodd" d="M69.6088 21.0092C68.2605 16.9862 68.7099 13.474 70.7004 9.8341C74.2318 9.8341 76.8001 12.0053 79.0473 15.0066C77.4421 16.8585 75.9012 18.8381 75.0023 21.3285C73.4613 20.9454 71.2782 20.6899 69.6088 21.0092ZM89.8984 9.51481C88.55 5.68334 85.9175 2.10731 82.5787 0.0638577L82.5145 0L82.4503 0.0638577C79.1115 2.10731 76.479 5.68334 75.1307 9.51481C77.1853 10.7281 78.6621 12.133 80.1388 13.8571C80.9735 12.9631 81.744 12.133 82.5145 11.239C83.285 12.133 84.1197 12.9631 84.8902 13.8571C86.367 12.133 87.8437 10.6643 89.8984 9.51481ZM95.356 21.0092C96.7043 16.9862 96.2549 13.474 94.2645 9.8341C90.7331 9.8341 88.1648 12.0053 85.9175 15.0066C87.5227 16.8585 89.0637 18.8381 89.9626 21.3285C91.5678 20.9454 93.7508 20.6899 95.356 21.0092ZM82.5145 40.5497H81.423V38.1231C76.8643 39.6557 73.1402 38.7617 70.0583 36.2074C70.6362 35.3772 71.3424 34.9302 72.1129 34.6748C68.3247 32.5675 66.3343 28.7999 67.1047 22.7972C67.9394 22.5418 68.8383 22.3502 69.7372 22.2864C71.3424 22.2225 72.9476 22.3502 74.5528 22.7334C74.0391 24.8407 73.9749 27.2673 74.617 30.2047C74.4244 23.7551 76.8643 18.5188 82.4503 14.7512V14.6234L82.5145 14.6873L82.5787 14.6234V14.7512C88.1648 18.5188 90.5404 23.819 90.412 30.2047C91.0541 27.2673 90.9899 24.8407 90.4762 22.7334C92.0814 22.3502 93.6866 22.1587 95.2918 22.2864C96.1907 22.3502 97.0254 22.4779 97.9243 22.7972C98.6948 28.7999 96.7043 32.5036 92.9161 34.6748C93.6866 34.9302 94.3929 35.3772 94.9707 36.2074C91.8888 38.7617 88.229 39.5918 83.606 38.1231V40.5497H82.5145Z" fill="#058181"/>
<path d="M59.143 46.6162C58.9504 47.1271 58.5652 47.7018 57.9873 48.4042C57.4094 49.1066 56.5105 49.6175 55.2906 50.0007C53.8138 50.3838 51.5024 51.0224 48.292 51.9164C45.1458 52.8104 41.486 54.0237 37.441 55.6201C37.9546 58.1745 38.2114 60.8565 38.2757 63.6662C38.3399 66.476 38.0188 69.4773 37.3125 72.6063C36.0284 78.4174 33.9738 83.0151 31.1486 86.3996C28.3235 89.7841 25.3058 92.2745 22.1596 93.8071C19.0134 95.3397 15.9315 96.1699 12.9137 96.2337C9.896 96.3614 7.52032 95.9144 5.85093 95.0843C3.7963 93.9987 2.31953 92.6577 1.42063 90.9974C0.521723 89.4009 0.0722708 87.6768 0.00806347 85.8249C-0.0561439 83.973 0.264893 82.1211 0.906967 80.1415C1.54904 78.1619 2.31953 76.3739 3.21843 74.7136C3.7963 73.5642 4.6952 72.1593 5.91514 70.5629C7.07087 68.9664 8.54764 67.3061 10.2812 65.4543C12.0148 63.6662 14.0695 61.7505 16.4451 59.8348C18.8208 57.919 21.5175 56.131 24.4711 54.4707C23.9574 52.108 23.3153 49.8091 22.5448 47.6379C21.7744 45.4029 20.8112 43.3594 19.7197 41.3799C18.7566 39.4003 18.1145 37.2291 17.9219 34.8025C17.7293 32.3759 18.0503 30.077 18.9492 27.842C19.8481 25.607 21.2607 23.6274 23.2511 21.8394C25.2416 20.0514 27.8741 18.8381 31.2771 18.1356C33.8453 17.6248 35.9642 17.6248 37.6336 18.0079C39.303 18.391 40.7155 18.9658 41.8071 19.7959C42.9628 20.6899 43.9259 21.7755 44.6322 23.0527C45.21 22.4779 45.8521 21.7755 46.5584 21.0092C47.0721 20.3068 47.6499 19.5405 48.3562 18.6465C49.0625 17.7525 49.7688 16.7946 50.4108 15.709C50.6035 15.1343 50.9245 14.6234 51.3097 14.2403C52.0802 13.474 52.9149 13.2824 53.6854 13.6656C53.878 13.7933 54.2633 14.0487 54.8412 14.4957C55.419 14.9427 55.9327 15.5813 56.3821 16.4115C56.8316 17.2416 57.0884 18.3272 57.1526 19.7321C57.2168 21.1369 56.7032 22.7334 55.7401 24.5853C54.6485 26.5648 53.3002 28.4167 51.6308 30.2047C50.0256 31.9928 48.292 33.4615 46.4942 34.6109C44.6964 35.7604 43.027 36.6544 41.3576 37.1014C39.7524 37.6122 38.4683 37.5484 37.5694 36.9737C36.6705 36.399 36.0926 35.8242 35.8358 35.3772C35.5789 34.8664 35.5147 34.4194 35.7074 33.9724C35.8358 33.5253 36.0926 33.1422 36.4778 32.6952C36.7989 32.312 37.1199 31.9289 37.3125 31.5458C37.6336 30.971 37.8262 30.2686 38.083 29.3746C38.2757 28.5444 38.3399 27.7781 38.2114 27.0119C38.083 26.2456 37.8262 25.6708 37.3767 25.16C36.9273 24.6491 36.221 24.3937 35.1937 24.3937C34.2948 24.3937 33.5243 24.7768 32.818 25.4793C32.1117 26.2456 31.5339 27.1396 31.0844 28.289C30.635 29.4384 30.3781 30.6517 30.2497 31.9928C30.1213 33.3338 30.3139 34.5471 30.6992 35.7604C31.0844 37.3568 31.7907 39.2087 32.7538 41.4437C33.7169 43.6787 34.7442 46.2331 35.7074 49.1705C38.8535 48.2126 42.2565 47.3825 45.8521 46.8078C49.4477 46.233 53.3644 45.8499 57.4737 45.786H57.7947C57.9873 45.786 58.2441 45.8499 58.6294 45.9138C59.0788 45.9776 59.2073 46.2331 59.143 46.6162ZM22.0312 74.0751C23.829 70.1159 24.7921 66.2844 24.9847 62.5806C20.3618 65.4543 16.2525 68.9026 12.7211 72.9895C9.18972 77.0764 7.13508 81.8018 6.55721 87.2298C8.54764 87.0382 10.4097 86.4635 12.2075 85.4417C13.8126 84.6754 15.482 83.3983 17.2798 81.6103C19.0777 79.8223 20.6186 77.3318 22.0312 74.0751Z" fill="#058181"/>
<path d="M76.6075 56.3865C75.516 58.6215 74.6171 60.9843 73.9108 63.4747C73.1403 66.029 72.7551 68.3918 72.8193 70.6268C72.8835 72.8618 73.5898 74.9053 75.0024 76.8848L75.3234 77.4596C75.516 77.8427 75.516 78.2259 75.3234 78.4813C75.1308 79.056 74.4887 79.2476 73.3972 79.056C71.5352 79.056 69.8658 78.7367 68.5174 78.0343C67.3617 77.5234 66.2702 76.6294 65.2428 75.3523C64.2797 74.0751 63.7661 72.2232 63.7661 69.9244C62.0967 72.0955 60.1062 73.9474 57.859 75.5438C55.6117 77.1403 53.0434 77.5873 50.1541 77.0126C48.1637 76.6294 46.7511 75.7993 45.9164 74.586C45.0817 73.3727 44.6323 71.9039 44.5039 70.2436C44.3754 68.5833 44.6323 66.7315 45.1459 64.8157C45.6596 62.8361 46.3659 60.9204 47.2006 59.0685C48.0353 57.2167 48.9342 55.4286 49.9615 53.8322C50.9246 52.2357 51.8235 50.8947 52.6582 49.9369C54.0708 48.085 55.8044 46.2331 57.9232 44.509C60.042 42.7209 62.2893 42.0185 64.665 42.2739C65.0502 42.4016 65.5639 42.4655 66.2059 42.6571C66.848 42.7848 67.4901 43.1041 68.068 43.6149C69.1595 44.3812 69.8016 45.403 69.9942 46.6163C70.1868 47.8296 70.1226 49.1706 69.6731 50.5116V50.6393H69.8016C70.7005 49.9369 71.7278 49.873 72.9477 50.32C73.0761 50.4477 73.1403 50.4477 73.2688 50.4477C74.9382 51.3417 76.0297 52.4912 76.5433 53.9599C76.8644 54.7262 76.9286 55.4925 76.6075 56.3865ZM65.4997 59.8987C65.8207 58.8131 66.1417 57.7275 66.527 56.6419C66.9122 55.5563 67.3617 54.4708 67.8753 53.3852C67.3617 53.896 66.848 54.2792 66.3344 54.6623C65.8207 54.9816 65.1144 55.1732 64.3439 55.1732C63.445 55.1732 62.9314 55.0455 62.8672 54.7262C62.6745 54.3431 62.6745 53.8322 62.8672 53.2575L63.3166 52.8105L63.445 52.6828C63.8303 52.1719 64.1513 51.4056 64.4081 50.32C64.665 49.2344 64.3439 48.4043 63.445 47.8296C62.6745 47.3187 61.7114 47.4464 60.6199 48.1488C59.5284 48.8513 58.4369 49.873 57.3453 51.2779C56.2538 52.6827 55.2907 54.2153 54.3918 56.0034C53.4929 57.7914 52.915 59.4517 52.594 61.0481C52.273 62.6446 52.4014 63.9856 52.915 65.1989C53.4287 66.3483 54.5202 67.0508 56.1896 67.1146C57.2811 67.2423 58.6295 66.7315 60.2989 65.7097C61.9041 64.688 63.445 63.5386 64.7934 62.3891C64.986 62.006 65.1144 61.6228 65.1786 61.2397C65.1786 60.7288 65.307 60.2818 65.4997 59.8987Z" fill="#058181"/>
<path d="M109.097 56.3865C108.005 58.6215 107.106 60.9843 106.4 63.4747C105.629 66.029 105.244 68.3918 105.308 70.6268C105.372 72.8618 106.079 74.9053 107.491 76.8848L107.812 77.4596C108.005 77.8427 108.005 78.2259 107.812 78.4813C107.62 79.056 106.978 79.2476 105.886 79.056C104.024 79.056 102.355 78.7367 101.006 78.0343C99.8506 77.5234 98.7591 76.6294 97.7318 75.3523C96.7687 74.0751 96.255 72.2232 96.255 69.9244C94.5856 72.0955 92.5952 73.9474 90.3479 75.5438C88.1007 77.1403 85.5324 77.5873 82.6431 77.0126C80.6526 76.6294 79.2401 75.7993 78.4054 74.586C77.5707 73.3727 77.1212 71.9039 76.9928 70.2436C76.8644 68.5833 77.1212 66.7315 77.6349 64.8157C78.1485 62.8361 78.8548 60.9204 79.6895 59.0685C80.5242 57.2167 81.4231 55.4286 82.4504 53.8322C83.4135 52.2357 84.3124 50.8947 85.1471 49.9369C86.5597 48.085 88.2933 46.2331 90.4121 44.509C92.531 42.7209 94.7782 42.0185 97.1539 42.2739C97.5392 42.4016 98.0528 42.4655 98.6949 42.6571C99.337 42.7848 99.979 43.1041 100.557 43.6149C101.648 44.3812 102.291 45.403 102.483 46.6163C102.676 47.8296 102.612 49.1706 102.162 50.5116V50.6393H102.291C103.189 49.9369 104.217 49.873 105.437 50.32C105.565 50.4477 105.629 50.4477 105.758 50.4477C107.427 51.3417 108.519 52.4912 109.032 53.9599C109.353 54.7262 109.418 55.4925 109.097 56.3865ZM97.9886 59.8987C98.3097 58.8131 98.6307 57.7275 99.0159 56.6419C99.4012 55.5563 99.8506 54.4708 100.364 53.3852C99.8506 53.896 99.337 54.2792 98.8233 54.6623C98.3097 54.9816 97.6034 55.1732 96.8329 55.1732C95.934 55.1732 95.4203 55.0455 95.3561 54.7262C95.1635 54.3431 95.1635 53.8322 95.3561 53.2575L95.8056 52.8105L95.934 52.6828C96.3192 52.1719 96.6403 51.4056 96.8971 50.32C97.1539 49.2344 96.8329 48.4043 95.934 47.8296C95.1635 47.3187 94.2004 47.4464 93.1089 48.1488C92.0173 48.8513 90.9258 49.873 89.8343 51.2779C88.7428 52.6827 87.7796 54.2153 86.8807 56.0034C85.9818 57.7914 85.404 59.4517 85.0829 61.0481C84.7619 62.6446 84.8903 63.9856 85.404 65.1989C85.9176 66.3483 87.0092 67.0508 88.6785 67.1146C89.7701 67.2423 91.1184 66.7315 92.7878 65.7097C94.393 64.688 95.934 63.5386 97.2823 62.3891C97.475 62.006 97.6034 61.6228 97.6676 61.2397C97.6676 60.7288 97.796 60.2818 97.9886 59.8987Z" fill="#058181"/>
<path d="M131.569 63.1553C131.89 63.0915 132.083 63.0915 132.339 63.2192C132.532 63.3469 132.725 63.4746 132.853 63.6662C133.046 63.8578 133.238 64.1132 133.367 64.4325C134.009 66.1567 134.266 67.6892 134.201 68.9664C134.137 70.2435 133.816 71.393 133.238 72.287C132.66 73.2449 131.954 74.0112 130.991 74.6497C130.028 75.2883 129.065 75.863 127.973 76.2462C125.469 77.204 122.387 77.7788 118.792 77.9065C116.93 77.9065 115.196 77.7788 113.591 77.4595H113.527C112.628 77.2679 111.986 76.9486 111.6 76.5655C111.215 76.1823 111.023 75.9269 110.894 75.7992C109.995 74.3943 109.546 72.9256 109.546 71.393C109.482 70.5628 109.546 69.7965 109.738 69.0303C109.931 68.264 110.124 67.5615 110.445 66.9229C110.766 66.0928 111.472 65.0711 112.564 63.7939C113.655 62.5168 114.875 61.1757 116.159 59.8347C117.443 58.4937 118.727 57.1527 119.947 56.0033C121.167 54.79 122.13 53.896 122.901 53.1935C123.736 52.3634 124.956 51.2778 126.497 49.8091C128.102 48.3403 129.835 46.9993 131.633 45.7222C129.964 46.0414 128.423 46.3607 127.01 46.68C125.598 46.9993 124.699 47.1909 124.249 47.3186C122.387 47.7656 120.718 47.8933 119.241 47.7656C117.764 47.6379 116.609 46.8716 115.774 45.5944C115.26 44.892 115.068 44.1257 115.068 43.3594C115.068 42.657 115.26 41.9546 115.71 41.1244C116.095 40.2942 116.994 39.4641 118.278 38.6978C118.535 38.6339 118.792 38.5701 118.984 38.5062C119.241 38.5062 119.369 38.6339 119.498 38.9532C119.498 39.2725 119.562 39.528 119.691 39.8472C119.819 40.1665 120.012 40.422 120.333 40.7412C120.654 40.9967 121.039 41.2521 121.553 41.3798C122.066 41.5714 122.772 41.6353 123.607 41.6353H123.736C123.864 41.6353 124.057 41.6353 124.185 41.5714C124.506 41.5075 125.212 41.5075 126.24 41.4437C127.267 41.3798 128.423 41.3798 129.578 41.316C130.798 41.316 131.954 41.2521 133.11 41.1883C134.266 41.1244 135.165 41.1244 135.742 41.1244H135.871C135.999 41.1244 136.192 41.1244 136.513 41.0605C136.834 41.0605 137.219 41.0605 137.733 41.1244C138.054 41.0605 138.503 41.0605 139.017 41.0605C139.531 41.0605 140.044 41.1244 140.558 41.2521C141.393 41.3798 142.035 41.6353 142.613 41.9545C143.19 42.2738 143.511 42.8486 143.576 43.6148V43.8064V44.1257C143.576 44.2534 143.511 44.3811 143.447 44.5727C143.19 45.2752 142.741 45.8499 141.97 46.3607C141.714 46.4885 141.521 46.5523 141.457 46.4884C141.328 46.4246 141.2 46.4246 141.136 46.3607C141.007 46.1053 140.751 45.9137 140.43 45.7222C140.108 45.8499 139.402 46.1053 138.311 46.68C137.219 47.1909 135.678 48.2765 133.688 49.8729C132.66 50.7669 131.697 51.7248 130.734 52.6188C129.771 53.5767 128.872 54.5345 127.973 55.4924C127.845 55.6201 127.781 55.684 127.716 55.7478C127.652 55.8117 127.588 55.8755 127.46 56.0033C127.395 56.0671 127.395 56.0671 127.395 56.131C127.395 56.131 127.395 56.1948 127.331 56.2587C127.203 56.3864 127.074 56.5141 127.01 56.6418C126.497 57.1527 126.047 57.7274 125.533 58.2383C125.02 58.813 124.57 59.3239 124.185 59.9624C123.671 60.6649 123.094 61.3673 122.516 62.0697C121.938 62.836 121.36 63.6023 120.782 64.4325C120.268 65.1349 119.691 65.9012 118.984 66.7314C118.342 67.5615 117.7 68.3917 117.186 69.2218C116.609 70.052 116.159 70.8821 115.838 71.6484C115.453 72.4147 115.389 73.1171 115.517 73.7557C115.645 73.7557 115.838 73.7557 115.967 73.6919C116.159 73.6919 116.288 73.628 116.48 73.628C118.535 73.5003 120.397 73.0533 122.002 72.4147C123.607 71.7123 125.02 71.0098 126.175 70.1797C127.331 69.3495 128.294 68.5194 129.065 67.6892C129.835 66.8591 130.349 66.2205 130.606 65.7096C130.863 65.3265 130.991 65.0072 131.055 64.7518C131.119 64.4963 131.119 64.3686 131.119 64.2409C131.055 63.8578 131.119 63.5385 131.312 63.3469C131.376 63.283 131.44 63.2192 131.569 63.1553Z" fill="#058181"/>
<path d="M36.6062 95.7867L37.0557 95.7228C37.3125 95.659 37.4409 95.659 37.4409 95.3397L38.5966 88.89L37.8903 88.8262L38.083 87.7406H41.5502C43.99 87.7406 45.4668 88.9539 45.4668 91.2528C45.4668 95.3397 42.8985 96.8084 40.266 96.8084H36.4778L36.6062 95.7867ZM39.1103 95.5312H40.266C42.4491 95.5312 43.7332 93.8709 43.7332 91.3805C43.7332 89.8479 43.1554 88.89 41.4218 88.89H40.266L39.1103 95.5312Z" fill="#7E7E81"/>
<path d="M49.191 89.9117L48.2279 95.4673C48.1636 95.7227 48.2279 95.7866 48.4847 95.7866H48.8057C48.8699 95.7866 48.9341 95.7866 49.0625 95.7866L48.8699 96.8083C48.6131 96.8722 48.0352 96.936 47.7142 96.936C46.6869 96.936 46.43 96.3613 46.6227 95.4673L47.3932 91.3804C47.4574 91.0611 47.3932 90.9973 47.1363 90.9973H46.7511L46.9437 89.9755H49.191V89.9117ZM48.7415 87.0381C49.2552 87.0381 49.5762 87.3574 49.5762 87.8044C49.5762 88.443 49.0625 88.89 48.3563 88.89C47.8426 88.89 47.5216 88.5707 47.5216 88.1237C47.5858 87.4851 48.0994 87.0381 48.7415 87.0381Z" fill="#7E7E81"/>
<path d="M53.4287 90.8696C52.7866 90.8696 52.2087 91.1251 52.2087 91.7637C52.2087 92.3384 52.7866 92.4661 53.3645 92.7215C54.3276 93.1047 55.2265 93.3601 55.2265 94.6373C55.2265 96.106 54.1992 97 52.2087 97C51.3098 97 50.2825 96.7446 49.8331 96.553L50.1541 94.8288L51.4383 94.7011L51.3098 95.4036C51.2456 95.5951 51.3098 95.659 51.5025 95.7228C51.6309 95.7867 51.9519 95.8506 52.3372 95.8506C53.0434 95.8506 53.6213 95.5951 53.6213 94.8927C53.6213 94.318 53.1076 94.1903 52.4656 93.9987C51.6309 93.7432 50.6678 93.3601 50.6678 92.0191C50.6678 90.6142 51.7593 89.7841 53.6855 89.7841C54.456 89.7841 55.3549 89.9118 55.8686 90.2311L55.5475 91.8275L54.3276 91.9552L54.456 91.3805C54.5202 91.1251 54.456 91.0612 54.3276 90.9974C54.0066 90.8696 53.7497 90.8696 53.4287 90.8696Z" fill="#7E7E81"/>
<path d="M56.8316 90.0394C57.7947 89.9117 58.1799 89.2732 58.6936 88.3792H59.5925L59.3357 89.9117H61.1335L60.7482 91.0612H59.0789L58.4368 94.6372C58.3084 95.4674 58.501 95.6589 59.0146 95.6589C59.4641 95.6589 59.8493 95.4674 60.1062 95.4035L60.2988 96.4891C59.8493 96.7445 59.2715 96.9361 58.501 96.9361C56.5106 96.9361 56.5748 95.6589 56.7674 94.7011L57.4095 91.0612H56.4464L56.8316 90.0394Z" fill="#7E7E81"/>
<path d="M63.8944 92.7854L63.1881 96.8084H61.5829L62.5461 91.3805C62.6103 91.1251 62.5461 91.0612 62.2892 90.9974L61.8398 90.9335L62.0324 89.9118H64.2155L64.087 90.9335C64.4723 90.2949 65.1144 89.7202 66.2701 89.7202C66.6553 89.7202 67.169 89.7841 67.49 89.9757L67.1048 92.2107L65.6922 92.2745L65.8206 91.4444C65.8848 91.2528 65.8206 91.1251 65.7564 91.0612C65.6922 90.9974 65.5638 90.9974 65.3712 90.9974C64.6649 91.1251 64.087 91.6998 63.8944 92.7854Z" fill="#7E7E81"/>
<path d="M70.7647 89.9117L69.8015 95.4673C69.7373 95.7227 69.8015 95.7866 70.0584 95.7866H70.3794C70.4436 95.7866 70.5078 95.7866 70.6362 95.7866L70.3794 96.8083C70.1226 96.8722 69.5447 96.936 69.2237 96.936C68.1964 96.936 67.9395 96.3613 68.1322 95.4673L68.9026 91.3804C68.9669 91.0611 68.9026 90.9973 68.6458 90.9973H68.2606L68.4532 89.9755H70.7647V89.9117ZM70.3794 87.0381C70.8931 87.0381 71.2141 87.3574 71.2141 87.8044C71.2141 88.443 70.7005 88.89 69.9942 88.89C69.4805 88.89 69.1595 88.5707 69.1595 88.1237C69.1595 87.4851 69.6731 87.0381 70.3794 87.0381Z" fill="#7E7E81"/>
<path d="M74.4245 90.4864C74.8739 89.9117 75.5802 89.7201 76.2865 89.7201C77.6348 89.7201 78.3411 90.6141 78.3411 92.3383C78.3411 95.148 77.057 96.936 74.3603 96.936C73.4614 96.936 72.2414 96.6806 71.7278 96.3613L73.1403 88.5068C73.2045 88.2514 73.0761 88.1237 72.8835 88.1237L72.434 88.0598L72.6267 87.0381H75.0023L74.4245 90.4864ZM73.5898 95.5312C73.8466 95.6589 74.1676 95.7866 74.6171 95.7866C76.2223 95.7866 76.7359 93.9347 76.7359 92.5299C76.7359 91.572 76.4791 90.9334 75.6444 90.9334C74.9381 90.9334 74.3603 91.3166 74.2318 92.1467L73.5898 95.5312Z" fill="#7E7E81"/>
<path d="M85.0827 95.4674C85.0185 95.7228 85.0828 95.7228 85.3396 95.7228C85.4038 95.7228 85.5322 95.7228 85.6606 95.7228C85.7248 95.7228 85.789 95.7228 85.8532 95.7228L85.6606 96.7445C85.4038 96.8084 84.9543 96.9361 84.6333 96.9361C83.9912 96.9361 83.5418 96.6807 83.606 95.8505H83.5418C83.0923 96.6168 82.3218 96.9361 81.4871 96.9361C79.9462 96.9361 79.4325 95.9782 79.6893 94.5095L80.2672 91.3166C80.3314 91.0612 80.2672 90.9335 80.0104 90.9335H79.6251L79.8177 89.9117H82.1934L81.4229 94.3179C81.2945 95.2119 81.3587 95.6589 82.1934 95.6589C82.7713 95.6589 83.606 95.2758 83.7986 94.0625L84.5049 89.9117H86.1101L85.0827 95.4674Z" fill="#7E7E81"/>
<path d="M90.0267 89.9117L89.0636 95.4673C88.9994 95.7227 89.0636 95.7866 89.3204 95.7866H89.6415C89.7057 95.7866 89.7699 95.7866 89.8983 95.7866L89.6415 96.8083C89.3846 96.8722 88.8068 96.936 88.4857 96.936C87.4584 96.936 87.2016 96.3613 87.3942 95.4673L88.1647 91.3804C88.2289 91.0611 88.1647 90.9973 87.9079 90.9973H87.5226L87.7153 89.9755H90.0267V89.9117ZM89.5773 87.0381C90.0909 87.0381 90.412 87.3574 90.412 87.8044C90.412 88.443 89.8983 88.89 89.192 88.89C88.6784 88.89 88.3573 88.5707 88.3573 88.1237C88.4215 87.4851 88.9352 87.0381 89.5773 87.0381Z" fill="#7E7E81"/>
<path d="M96.7685 95.5312C96.7043 95.7227 96.7685 95.7866 97.0253 95.7866H97.539L97.3463 96.8083C97.0895 96.8722 96.5758 96.936 96.319 96.936C95.4843 96.936 95.2917 96.489 95.3559 95.9143H95.2917C94.8423 96.489 94.2002 96.936 93.2371 96.936C91.6961 96.936 91.054 95.9143 91.054 94.5094C91.054 91.7636 92.4666 89.7201 95.0991 89.7201C95.3559 89.7201 95.8696 89.7201 96.1906 89.8478L96.4474 88.5068C96.5116 88.2514 96.3832 88.1237 96.1906 88.1237L95.7412 88.0598L95.9338 87.0381H98.3737L96.7685 95.5312ZM95.4201 93.9986L95.9338 91.125C95.6769 90.9973 95.3559 90.9334 95.0349 90.9334C93.3655 90.9334 92.7876 92.9769 92.7876 94.4456C92.7876 95.148 92.9802 95.7227 93.8149 95.7227C94.5212 95.7866 95.2275 95.2119 95.4201 93.9986Z" fill="#7E7E81"/>
<path d="M102.612 89.7202C103.575 89.7202 105.116 90.1034 105.116 92.2107C105.116 94.6373 104.024 96.9361 101.263 96.9361C99.658 96.9361 98.7591 96.0421 98.7591 94.3818C98.7591 91.8914 99.9148 89.7202 102.612 89.7202ZM103.446 92.3384C103.446 91.4444 103.125 90.9335 102.355 90.9335C100.75 90.9335 100.364 93.1047 100.364 94.3818C100.364 95.212 100.621 95.7867 101.456 95.7867C103.061 95.7228 103.446 93.4878 103.446 92.3384Z" fill="#7E7E81"/>
<path d="M108.518 92.7854L107.812 96.8084H106.207L107.17 91.3805C107.234 91.1251 107.17 91.0612 106.913 90.9974L106.464 90.9335L106.656 89.9118H108.84L108.711 90.9335C109.096 90.2949 109.738 89.7202 110.894 89.7202C111.279 89.7202 111.793 89.7841 112.114 89.9757L111.729 92.2107L110.316 92.2745L110.445 91.4444C110.509 91.2528 110.445 91.1251 110.381 91.0612C110.316 90.9974 110.188 90.9974 109.995 90.9974C109.225 91.1251 108.711 91.6998 108.518 92.7854Z" fill="#7E7E81"/>
<path d="M117.957 95.5313C117.893 95.7228 117.957 95.7867 118.214 95.7867C118.278 95.7867 118.406 95.7867 118.471 95.7867C118.535 95.7867 118.599 95.7867 118.663 95.7867L118.535 96.8084C118.278 96.8723 117.829 96.9361 117.507 96.9361C116.673 96.9361 116.416 96.4891 116.48 95.9783H116.416C116.031 96.553 115.324 97 114.426 97C112.82 97 112.178 95.9783 112.178 94.5734C112.178 91.8275 113.527 89.7841 116.416 89.7841C116.994 89.7841 117.893 89.9118 118.792 90.2949L117.957 95.5313ZM116.544 94.1902L117.058 91.1251C116.801 90.9974 116.544 90.9335 116.159 90.9335C114.426 90.9335 113.912 92.8492 113.912 94.4457C113.912 95.1481 114.104 95.7867 114.939 95.7867C115.71 95.7867 116.352 95.2758 116.544 94.1902Z" fill="#7E7E81"/>
</svg>
